<svg width="32" height="24" viewBox="0 0 32 24" fill="none" xmlns="http://www.w3.org/2000/svg">
<g clip-path="url(#clip0_1119_4240)">
<path fill-rule="evenodd" clip-rule="evenodd" d="M-0.00195312 -0.000244141H31.998V23.9998H-0.00195312V-0.000244141Z" fill="#229E45"/>
<path fill-rule="evenodd" clip-rule="evenodd" d="M16.0685 21.8L31.1435 12.015L15.9785 2.19995L0.853516 12.035L16.0685 21.8Z" fill="#F8E509"/>
<path fill-rule="evenodd" clip-rule="evenodd" d="M22.6384 11.9998C22.6384 15.5148 19.7834 18.3648 16.2584 18.3648C14.9988 18.3628 13.768 17.9874 12.7217 17.286C11.6753 16.5846 10.8604 15.5888 10.38 14.4244C9.89954 13.2599 9.77511 11.9792 10.0224 10.7441C10.2697 9.50893 10.8777 8.37485 11.7695 7.48519C12.6612 6.59553 13.7967 5.99023 15.0325 5.74582C16.2682 5.50141 17.5486 5.62885 18.7119 6.11204C19.8752 6.59523 20.8691 7.41247 21.568 8.46045C22.2669 9.50843 22.6394 10.7401 22.6384 11.9998Z" fill="#2B49A3"/>
<path fill-rule="evenodd" clip-rule="evenodd" d="M14.1641 15.8151L13.9641 15.7001L13.7641 15.8001L13.8091 15.5751L13.6491 15.4051L13.8741 15.3801L13.9841 15.1801L14.0791 15.3901L14.2991 15.4301L14.1341 15.5801M18.4341 16.8951L18.2391 16.7801L18.0391 16.8801L18.0791 16.6551L17.9241 16.4901L18.1491 16.4651L18.2541 16.2601L18.3541 16.4701L18.5741 16.5101L18.4041 16.6651M16.5941 15.1651L16.4241 15.0651L16.2491 15.1551L16.2891 14.9601L16.1491 14.8151L16.3491 14.7951L16.4391 14.6151L16.5191 14.8001L16.7141 14.8351L16.5641 14.9701M20.9141 14.5451L20.7441 14.4451L20.5691 14.5351L20.6091 14.3401L20.4741 14.2001L20.6691 14.1801L20.7591 14.0051L20.8391 14.1851L21.0291 14.2201L20.8841 14.3501M16.5191 13.2501L16.3191 13.1401L16.1191 13.2401L16.1591 13.0101L16.0041 12.8451L16.2291 12.8201L16.3341 12.6151L16.4341 12.8251L16.6541 12.8651L16.4841 13.0251M11.2541 11.2751L11.0541 11.1651L10.8541 11.2651L10.9041 11.0351L10.7391 10.8701L10.9691 10.8451L11.0691 10.6401L11.1691 10.8501L11.3891 10.8901L11.2241 11.0451M11.8891 13.9051L11.6891 13.7901L11.4891 13.8901L11.5341 13.6651L11.3741 13.5001L11.5991 13.4701L11.7041 13.2701L11.8041 13.4801L12.0241 13.5201L11.8591 13.6751M18.4591 10.3101L18.2791 10.2101L18.0991 10.3001L18.1391 10.1001L17.9991 9.95012L18.1991 9.92512L18.2941 9.74512L18.3791 9.93512L18.5791 9.97012L18.4291 10.1051M18.0941 12.0201L17.9591 11.9401L17.8141 12.0101L17.8441 11.8501L17.7341 11.7351L17.8941 11.7151L17.9691 11.5751L18.0341 11.7251L18.1841 11.7501L18.0741 11.8601M10.9641 14.3801L10.8291 14.3051L10.6941 14.3701L10.7241 14.2201L10.6191 14.1101L10.7691 14.0901L10.8391 13.9551L10.9041 14.0951L11.0541 14.1251L10.9391 14.2251M20.9491 14.9901L20.8391 14.9351L20.7291 14.9851L20.7541 14.8701L20.6691 14.7901L20.7891 14.7751L20.8491 14.6751L20.8991 14.7751L21.0241 14.8001L20.9291 14.8751" fill="#FFFFEF"/>
<path fill-rule="evenodd" clip-rule="evenodd" d="M10.9641 14.3796L10.8291 14.3046L10.6941 14.3696L10.7241 14.2196L10.6191 14.1096L10.7691 14.0896L10.8391 13.9546L10.9041 14.0946L11.0541 14.1246L10.9391 14.2246" fill="#FFFFEF"/>
<path fill-rule="evenodd" clip-rule="evenodd" d="M10.9641 14.3801L10.8291 14.3051L10.6941 14.3701L10.7241 14.2201L10.6191 14.1101L10.7691 14.0901L10.8391 13.9551L10.9041 14.0951L11.0541 14.1251L10.9391 14.2251M13.0541 14.3751L12.9241 14.3051L12.7891 14.3701L12.8191 14.2201L12.7141 14.1101L12.8641 14.0901L12.9341 13.9551L12.9991 14.0951L13.1491 14.1201L13.0341 14.2251M12.7941 15.0751L12.6641 15.0001L12.5291 15.0701L12.5591 14.9201L12.4541 14.8051L12.6041 14.7851L12.6741 14.6501L12.7391 14.7901L12.8891 14.8201L12.7741 14.9201M17.1441 13.8101L17.0141 13.7301L16.8741 13.8001L16.9041 13.6501L16.8041 13.5351L16.9541 13.5201L17.0241 13.3851L17.0841 13.5251L17.2341 13.5501L17.1241 13.6551M15.8691 13.8051L15.7341 13.7301L15.5991 13.8001L15.6291 13.6501L15.5291 13.5351L15.6791 13.5201L15.7491 13.3801L15.8091 13.5251L15.9591 13.5501L15.8491 13.6551M12.4091 13.3651L12.3241 13.3151L12.2391 13.3551L12.2591 13.2601L12.1941 13.1901L12.2891 13.1801L12.3291 13.0951L12.3691 13.1851L12.4641 13.2001L12.3941 13.2651M20.7841 15.5351L20.6541 15.4601L20.5191 15.5301L20.5491 15.3801L20.4441 15.2651L20.5941 15.2451L20.6641 15.1101L20.7291 15.2501L20.8791 15.2801L20.7641 15.3801M19.7241 15.6801L19.6141 15.6101L19.4991 15.6701L19.5241 15.5401L19.4391 15.4501L19.5641 15.4351L19.6241 15.3201L19.6741 15.4401L19.7991 15.4601L19.7041 15.5501M20.2241 15.6651L20.1241 15.6051L20.0191 15.6551L20.0391 15.5401L19.9591 15.4551L20.0741 15.4401L20.1291 15.3401L20.1791 15.4401L20.2941 15.4651L20.2091 15.5451M21.6641 14.4051L21.5641 14.3551L21.4641 14.4051L21.4891 14.2901L21.4091 14.2051L21.5241 14.1901L21.5741 14.0901L21.6241 14.1951L21.7291 14.2151L21.6491 14.2951M19.7091 16.3851L19.5841 16.3151L19.4491 16.3751L19.4791 16.2351L19.3791 16.1351L19.5291 16.1201L19.5941 15.9951L19.6541 16.1251L19.8041 16.1501L19.6891 16.2451M19.7191 16.9551L19.5991 16.8851L19.4791 16.9501L19.5091 16.8101L19.4141 16.7101L19.5491 16.6901L19.6091 16.5651L19.6641 16.6951L19.7991 16.7201L19.6991 16.8201M18.7491 15.6651L18.6541 15.6051L18.5541 15.6551L18.5741 15.5451L18.4991 15.4601L18.6091 15.4501L18.6591 15.3501L18.7091 15.4501L18.8191 15.4701L18.7391 15.5501M17.8491 15.6651L17.7491 15.6051L17.6491 15.6551L17.6741 15.5451L17.5941 15.4601L17.7091 15.4501L17.7591 15.3501L17.8091 15.4501L17.9141 15.4701L17.8341 15.5501M16.3141 14.3201L16.2141 14.2651L16.1141 14.3151L16.1391 14.2001L16.0591 14.1201L16.1691 14.1051L16.2191 14.0051L16.2691 14.1051L16.3791 14.1301L16.2991 14.2051M16.4841 17.0551L16.4041 17.0101L16.3141 17.0551L16.3341 16.9551L16.2691 16.8851L16.3641 16.8751L16.4091 16.7901L16.4491 16.8801L16.5441 16.8951L16.4741 16.9601M14.1641 12.6301L13.9641 12.5151L13.7641 12.6151L13.8091 12.3901L13.6491 12.2251L13.8741 12.1951L13.9841 11.9951L14.0791 12.2051L14.2991 12.2451L14.1341 12.4001" fill="#FFFFEF"/>
<path fill-rule="evenodd" clip-rule="evenodd" d="M22.2184 14.2897C22.3423 13.9683 22.4393 13.6371 22.5084 13.2997C19.1184 10.3247 15.3434 8.79967 10.5734 9.11467C10.4004 9.44942 10.2582 9.79919 10.1484 10.1597C15.7984 9.61967 19.9484 12.1197 22.2184 14.2897Z" fill="white"/>
<path d="M20.6982 12.6193L20.8132 12.6843C20.796 12.7183 20.7908 12.757 20.7982 12.7943C20.8099 12.8305 20.8349 12.8609 20.8682 12.8793C20.9032 12.9043 20.9382 12.9193 20.9682 12.9143C20.9982 12.9143 21.0182 12.8993 21.0332 12.8793C21.0419 12.866 21.0455 12.85 21.0432 12.8343C21.0391 12.8158 21.0305 12.7987 21.0182 12.7843C21.0082 12.7693 20.9832 12.7343 20.9432 12.6943C20.9021 12.6519 20.8713 12.6006 20.8532 12.5443C20.8407 12.5017 20.844 12.4561 20.8623 12.4157C20.8807 12.3753 20.9129 12.3429 20.9532 12.3243C20.9896 12.3091 21.0298 12.3056 21.0682 12.3143C21.1152 12.3251 21.1595 12.3456 21.1982 12.3743C21.2682 12.4243 21.3132 12.4743 21.3282 12.5343C21.3351 12.5624 21.336 12.5916 21.3308 12.62C21.3257 12.6485 21.3146 12.6755 21.2982 12.6993L21.1782 12.6243C21.1932 12.5943 21.1982 12.5643 21.1882 12.5393C21.1832 12.5143 21.1632 12.4893 21.1282 12.4693C21.1025 12.4487 21.0711 12.4364 21.0382 12.4343C21.0291 12.434 21.0202 12.4362 21.0122 12.4406C21.0043 12.445 20.9977 12.4515 20.9932 12.4593C20.9832 12.4743 20.9832 12.4893 20.9882 12.5093C20.9932 12.5293 21.0182 12.5693 21.0682 12.6193C21.1182 12.6693 21.1482 12.7143 21.1682 12.7443C21.1861 12.7771 21.1941 12.8143 21.1915 12.8515C21.1888 12.8887 21.1755 12.9244 21.1532 12.9543C21.1298 12.9883 21.0967 13.0144 21.0582 13.0293C21.0207 13.0466 20.9788 13.0518 20.9382 13.0443C20.8932 13.0343 20.8482 13.0143 20.7982 12.9793C20.7232 12.9293 20.6782 12.8743 20.6632 12.8143C20.6469 12.7463 20.6577 12.6746 20.6932 12.6143L20.6982 12.6193ZM20.1182 12.2393L20.2432 12.3043C20.2277 12.3388 20.2242 12.3776 20.2332 12.4143C20.246 12.4486 20.2709 12.4771 20.3032 12.4943C20.3432 12.5193 20.3732 12.5293 20.4032 12.5243C20.4332 12.5243 20.4532 12.5093 20.4682 12.4843C20.4758 12.4724 20.4793 12.4584 20.4782 12.4443C20.4782 12.4293 20.4682 12.4093 20.4532 12.3943C20.4276 12.3634 20.4009 12.3334 20.3732 12.3043C20.3182 12.2493 20.2832 12.2043 20.2732 12.1643C20.265 12.1386 20.2626 12.1114 20.266 12.0846C20.2695 12.0578 20.2788 12.0321 20.2932 12.0093C20.3122 11.9785 20.3401 11.9541 20.3732 11.9393C20.4076 11.9235 20.4459 11.9183 20.4832 11.9243C20.5294 11.9321 20.5737 11.9491 20.6132 11.9743C20.6882 12.0243 20.7332 12.0743 20.7482 12.1293C20.7573 12.1574 20.7602 12.1872 20.7568 12.2165C20.7533 12.2458 20.7436 12.2741 20.7282 12.2993L20.6032 12.2293C20.6182 12.1943 20.6232 12.1693 20.6132 12.1443C20.6032 12.1193 20.5832 12.0943 20.5482 12.0743C20.5205 12.0545 20.4873 12.044 20.4532 12.0443C20.445 12.0449 20.437 12.0474 20.4301 12.0518C20.4231 12.0562 20.4173 12.0622 20.4132 12.0693C20.4032 12.0843 20.4032 12.0993 20.4082 12.1193C20.4132 12.1393 20.4432 12.1793 20.4932 12.2293C20.5432 12.2793 20.5782 12.3193 20.5932 12.3493C20.6132 12.3807 20.6239 12.4171 20.6239 12.4543C20.6239 12.4915 20.6132 12.528 20.5932 12.5593C20.5717 12.5942 20.5404 12.622 20.5032 12.6393C20.4657 12.6566 20.4238 12.6618 20.3832 12.6543C20.3317 12.6456 20.2825 12.6269 20.2382 12.5993C20.1736 12.5649 20.1238 12.508 20.0982 12.4393C20.0789 12.3726 20.086 12.3009 20.1182 12.2393ZM19.4082 12.0493L19.7732 11.4493L20.2132 11.7243L20.1532 11.8243L19.8332 11.6243L19.7532 11.7593L20.0532 11.9443L19.9882 12.0443L19.6882 11.8593L19.5882 12.0243L19.9232 12.2243L19.8632 12.3243L19.4132 12.0493H19.4082ZM18.3732 11.1993L18.4282 11.0993L18.6982 11.2343L18.5732 11.4843C18.5332 11.4943 18.4832 11.4993 18.4232 11.4943C18.3656 11.488 18.3096 11.471 18.2582 11.4443C18.1977 11.4148 18.146 11.37 18.1082 11.3143C18.0738 11.2626 18.0563 11.2014 18.0582 11.1393C18.0607 11.0747 18.0778 11.0114 18.1082 10.9543C18.1382 10.8942 18.183 10.8426 18.2382 10.8043C18.2911 10.7678 18.354 10.7486 18.4182 10.7493C18.4682 10.7493 18.5182 10.7643 18.5782 10.7993C18.6582 10.8343 18.7082 10.8843 18.7332 10.9393C18.7592 10.9939 18.7645 11.0561 18.7482 11.1143L18.6132 11.0743C18.6215 11.0408 18.6179 11.0055 18.6032 10.9743C18.5882 10.9443 18.5632 10.9243 18.5232 10.9043C18.4999 10.891 18.474 10.8828 18.4473 10.8802C18.4206 10.8776 18.3936 10.8807 18.3682 10.8893C18.3182 10.9043 18.2732 10.9493 18.2382 11.0193C18.2032 11.0893 18.1882 11.1543 18.2032 11.2093C18.2101 11.2354 18.2226 11.2597 18.2399 11.2804C18.2572 11.3011 18.2788 11.3178 18.3032 11.3293C18.3282 11.3443 18.3582 11.3543 18.3882 11.3543C18.418 11.3588 18.4484 11.3588 18.4782 11.3543L18.5182 11.2743L18.3732 11.1993ZM13.8632 10.0843L13.9632 9.38432L14.1732 9.41932L14.2282 9.90932L14.4232 9.45932L14.6332 9.48932L14.5332 10.1793L14.3982 10.1593L14.4832 9.61432L14.2632 10.1393L14.1282 10.1193L14.0732 9.55432L13.9932 10.1043L13.8632 10.0843ZM13.1582 9.99932L13.2232 9.29932L13.7382 9.34932L13.7282 9.46932L13.3532 9.43432L13.3382 9.58432L13.6882 9.61932L13.6732 9.73932L13.3232 9.70432L13.3082 9.89432L13.6982 9.92932L13.6882 10.0493L13.1582 9.99932Z" fill="#309E3A"/>
<path d="M10.8254 9.56532C10.8254 9.49032 10.8404 9.43532 10.8604 9.38532C10.8779 9.34976 10.9016 9.3176 10.9304 9.29032C10.9561 9.26446 10.9867 9.24405 11.0204 9.23032C11.0704 9.21532 11.1204 9.20532 11.1704 9.20532C11.2754 9.20532 11.3554 9.24532 11.4204 9.30532C11.4513 9.34354 11.4744 9.38755 11.4881 9.43477C11.5018 9.48199 11.506 9.53147 11.5004 9.58032C11.5004 9.69032 11.4654 9.78032 11.4004 9.84532C11.367 9.8762 11.3275 9.89971 11.2844 9.91436C11.2414 9.929 11.1957 9.93444 11.1504 9.93032C11.1057 9.93077 11.0614 9.92214 11.0201 9.90495C10.9789 9.88776 10.9416 9.86237 10.9104 9.83032C10.8482 9.75668 10.8176 9.66141 10.8254 9.56532Z" fill="#309E3A"/>
<path d="M10.9688 9.56578C10.9688 9.64078 10.9838 9.70078 11.0188 9.74578C11.0538 9.78578 11.0988 9.81078 11.1588 9.81078C11.1847 9.81259 11.2107 9.8086 11.235 9.79908C11.2592 9.78957 11.281 9.77477 11.2988 9.75578C11.3338 9.71578 11.3488 9.65578 11.3538 9.57078C11.3538 9.49078 11.3438 9.43078 11.3038 9.39078C11.2875 9.37062 11.2669 9.35434 11.2436 9.3431C11.2202 9.33186 11.1947 9.32594 11.1688 9.32578C11.1424 9.32493 11.1163 9.32987 11.0921 9.34024C11.0679 9.3506 11.0463 9.36615 11.0288 9.38578C10.9888 9.42578 10.9738 9.48578 10.9688 9.56578Z" fill="#F7FFFF"/>
<path d="M11.6484 9.92534L11.6584 9.22534H11.9584C12.0334 9.22534 12.0834 9.23534 12.1184 9.25034C12.1534 9.26034 12.1784 9.28534 12.1984 9.31534C12.2184 9.34534 12.2284 9.38534 12.2284 9.43034C12.2288 9.47844 12.211 9.5249 12.1784 9.56034C12.1415 9.59497 12.0939 9.61611 12.0434 9.62034L12.1184 9.68034C12.1384 9.70034 12.1634 9.74034 12.1934 9.79534L12.2784 9.93534H12.1084L12.0084 9.77534L11.9384 9.67534C11.9263 9.66158 11.9108 9.65124 11.8934 9.64534C11.8707 9.63871 11.8471 9.63534 11.8234 9.63534H11.7934V9.92534H11.6484Z" fill="#309E3A"/>
<path d="M11.8008 9.5257H11.9008C11.9708 9.5257 12.0158 9.5257 12.0308 9.5157C12.0458 9.5157 12.0608 9.5007 12.0708 9.4907C12.0808 9.4807 12.0858 9.4557 12.0858 9.4407C12.0858 9.4107 12.0808 9.3907 12.0658 9.3807C12.0558 9.3657 12.0358 9.3557 12.0158 9.3507H11.9158L11.8008 9.3457V9.5257Z" fill="white"/>
<path d="M12.451 9.26001L12.711 9.27501C12.766 9.27501 12.811 9.28001 12.841 9.29001C12.8799 9.30413 12.9144 9.32828 12.941 9.36001C12.9698 9.39497 12.9903 9.43599 13.001 9.48001C13.016 9.52501 13.021 9.58001 13.016 9.64501C13.016 9.69604 13.0075 9.74672 12.991 9.79501C12.971 9.84501 12.941 9.88501 12.906 9.91501C12.8769 9.93901 12.8427 9.95611 12.806 9.96501C12.776 9.97501 12.731 9.97501 12.681 9.97501L12.416 9.96001L12.451 9.26001Z" fill="#309E3A"/>
<path d="M12.5855 9.38501L12.5605 9.85001H12.7505C12.7755 9.85001 12.7955 9.84001 12.8105 9.82501C12.8255 9.81001 12.8405 9.79001 12.8505 9.76001C12.8605 9.73001 12.8705 9.68501 12.8705 9.63001L12.8655 9.50501C12.8584 9.47865 12.8446 9.45455 12.8255 9.43501C12.8089 9.41831 12.7883 9.40624 12.7655 9.40001C12.7277 9.39159 12.6893 9.38657 12.6505 9.38501H12.5855Z" fill="white"/>
<path d="M15.877 10.5103L16.042 9.83032L16.262 9.88032L16.422 9.93032C16.457 9.95032 16.487 9.98032 16.502 10.0253C16.522 10.0653 16.522 10.1103 16.512 10.1653C16.502 10.2053 16.487 10.2403 16.462 10.2653C16.4436 10.2873 16.4207 10.3049 16.3947 10.317C16.3688 10.3291 16.3406 10.3354 16.312 10.3353C16.277 10.3353 16.227 10.3253 16.162 10.3103L16.077 10.2853L16.017 10.5453L15.877 10.5103Z" fill="#309E3A"/>
<path d="M16.1455 9.97998L16.1055 10.17L16.1805 10.19C16.2305 10.2 16.2705 10.21 16.2905 10.205C16.3099 10.2023 16.3281 10.1936 16.3424 10.1802C16.3567 10.1668 16.3665 10.1492 16.3705 10.13C16.3705 10.105 16.3705 10.085 16.3605 10.065C16.3495 10.0447 16.3318 10.0288 16.3105 10.02L16.2155 9.99498L16.1505 9.97998H16.1455Z" fill="white"/>
<path d="M16.5293 10.7054L16.7643 10.0454L17.0393 10.1454C17.1143 10.1704 17.1593 10.1954 17.1893 10.2154C17.2143 10.2404 17.2343 10.2654 17.2393 10.3054C17.2443 10.3454 17.2493 10.3804 17.2393 10.4204C17.2193 10.4704 17.1893 10.5054 17.1493 10.5304C17.1093 10.5504 17.0593 10.5554 16.9993 10.5454C17.0193 10.5704 17.0393 10.5954 17.0493 10.6254L17.0893 10.7604L17.1193 10.9154L16.9643 10.8604L16.9143 10.6804C16.9052 10.6397 16.8935 10.5996 16.8793 10.5604C16.8727 10.5449 16.8624 10.5311 16.8493 10.5204C16.8393 10.5054 16.8193 10.4954 16.7843 10.4854L16.7593 10.4754L16.6593 10.7554L16.5293 10.7054Z" fill="#309E3A"/>
<path d="M16.7999 10.3703L16.8949 10.4053C16.9599 10.4303 16.9999 10.4403 17.0199 10.4403C17.0349 10.4403 17.0499 10.4403 17.0649 10.4253C17.0799 10.4153 17.0899 10.4003 17.0949 10.3803C17.1049 10.3603 17.1049 10.3403 17.0949 10.3203C17.0875 10.3009 17.0733 10.2849 17.0549 10.2753L16.9549 10.2403L16.8549 10.2053L16.7949 10.3703H16.7999Z" fill="white"/>
<path d="M17.3513 10.6804C17.3685 10.6219 17.3974 10.5674 17.4363 10.5204C17.4616 10.4902 17.4921 10.4648 17.5263 10.4454C17.5573 10.4279 17.5911 10.416 17.6263 10.4104C17.6763 10.4104 17.7263 10.4104 17.7813 10.4304C17.826 10.4415 17.8678 10.4619 17.904 10.4903C17.9402 10.5188 17.97 10.5546 17.9913 10.5954C18.0313 10.6754 18.0313 10.7704 18.0013 10.8804C17.9766 10.9749 17.9154 11.0558 17.8313 11.1054C17.7563 11.1504 17.6663 11.1554 17.5713 11.1254C17.5267 11.114 17.485 11.0935 17.4489 11.0651C17.4127 11.0367 17.3829 11.001 17.3613 10.9604C17.3413 10.9167 17.3301 10.8694 17.3284 10.8214C17.3266 10.7733 17.3344 10.7254 17.3513 10.6804Z" fill="#309E3A"/>
<path d="M17.4896 10.7205C17.4696 10.7955 17.4646 10.8605 17.4896 10.9105C17.5146 10.9605 17.5496 10.9905 17.6046 11.0105C17.6546 11.0255 17.7046 11.0205 17.7546 10.9905C17.8046 10.9655 17.8346 10.9105 17.8596 10.8305C17.8846 10.7555 17.8846 10.6955 17.8596 10.6455C17.8497 10.6218 17.8347 10.6005 17.8157 10.5832C17.7967 10.566 17.7741 10.5531 17.7496 10.5455C17.725 10.537 17.6988 10.5339 17.6729 10.5365C17.647 10.5391 17.622 10.5473 17.5996 10.5605C17.5496 10.5905 17.5146 10.6405 17.4896 10.7205Z" fill="white"/>
<path d="M18.7129 11.6554L19.0329 11.0354L19.2979 11.1704C19.3478 11.1944 19.3935 11.2265 19.4329 11.2654C19.4579 11.2904 19.4729 11.3204 19.4729 11.3604C19.4729 11.4004 19.4729 11.4354 19.4529 11.4704C19.4337 11.5154 19.3979 11.5512 19.3529 11.5704C19.3029 11.5804 19.2529 11.5804 19.1979 11.5604C19.2179 11.5904 19.2279 11.6204 19.2379 11.6454C19.2479 11.6754 19.2529 11.7204 19.2579 11.7854L19.2679 11.9454L19.1179 11.8704L19.0979 11.6854C19.0955 11.6435 19.0905 11.6017 19.0829 11.5604C19.0795 11.5417 19.0708 11.5244 19.0579 11.5104L18.9979 11.4754L18.9729 11.4604L18.8379 11.7204L18.7129 11.6554Z" fill="#309E3A"/>
<path d="M19.0215 11.3602L19.1165 11.4102C19.1765 11.4402 19.2165 11.4602 19.2315 11.4602C19.2465 11.4602 19.2665 11.4602 19.2815 11.4502C19.2965 11.4452 19.3065 11.4302 19.3165 11.4102C19.3265 11.3902 19.3315 11.3702 19.3265 11.3502C19.3203 11.3303 19.3081 11.3128 19.2915 11.3002C19.2622 11.2822 19.2322 11.2656 19.2015 11.2502L19.1015 11.2002L19.0215 11.3602Z" fill="white"/>
<path d="M21.3008 12.9352C21.3332 12.8838 21.3757 12.8395 21.4258 12.8052C21.4595 12.7837 21.4967 12.7684 21.5358 12.7602C21.5721 12.7528 21.6095 12.7528 21.6458 12.7602C21.6958 12.7702 21.7408 12.7902 21.7858 12.8202C21.8247 12.8444 21.8582 12.8765 21.884 12.9144C21.9098 12.9523 21.9275 12.9951 21.9358 13.0402C21.9508 13.1252 21.9258 13.2202 21.8658 13.3152C21.8156 13.3978 21.7347 13.4572 21.6408 13.4802C21.596 13.4899 21.5497 13.49 21.5049 13.4805C21.4601 13.471 21.4178 13.4522 21.3808 13.4252C21.3419 13.401 21.3085 13.3689 21.2826 13.331C21.2568 13.2931 21.2392 13.2503 21.2308 13.2052C21.2158 13.1152 21.2408 13.0252 21.3008 12.9352Z" fill="#309E3A"/>
<path d="M21.4251 13.0152C21.3751 13.0802 21.3601 13.1402 21.3701 13.1952C21.3738 13.2205 21.3828 13.2448 21.3966 13.2663C21.4104 13.2879 21.4287 13.3062 21.4501 13.3202C21.5001 13.3552 21.5501 13.3652 21.6001 13.3502C21.6501 13.3352 21.7001 13.3002 21.7451 13.2302C21.7901 13.1602 21.8101 13.1002 21.8001 13.0502C21.7951 13.0002 21.7651 12.9552 21.7201 12.9202C21.6751 12.8852 21.6201 12.8802 21.5701 12.8952C21.5201 12.9052 21.4701 12.9452 21.4201 13.0152H21.4251Z" fill="white"/>
<path d="M15.0859 10.2251L15.2009 9.73511L15.5609 9.82011L15.5459 9.90011L15.2809 9.84011L15.2559 9.95011L15.5009 10.0051L15.4809 10.0901L15.2359 10.0301L15.2059 10.1651L15.4809 10.2301L15.4609 10.3101L15.0859 10.2251Z" fill="#309E3A"/>
</g>
<defs>
<clipPath id="clip0_1119_4240">
<rect width="32" height="24" rx="4" fill="white"/>
</clipPath>
</defs>
</svg>
