<svg width="140" height="30" viewBox="0 0 140 30" fill="none" xmlns="http://www.w3.org/2000/svg">
<g clip-path="url(#clip0_1119_4221)">
<path d="M17.3878 20.492L11.6767 1.23816H16.5396L21.4591 17.5516H18.8862L23.0424 1.23816H28.2163L22.8727 20.492H17.3878ZM5.34356 20.492L0 1.23816H5.17393L9.33003 17.5516H6.75721L11.6767 1.23816H16.5396L15.6631 4.29163L10.8285 20.492H5.34356Z" fill="#F9FAFD"/>
<path d="M32.6229 13.3107V8.41946H40.6523V13.3107H32.6229ZM32.538 6.12936L34.602 3.86753V18.2301L32.3967 15.6008H42.1508V20.492H29.4846V1.23816H42.1508V6.12936H32.538Z" fill="#F9FAFD"/>
<path d="M56.3857 20.492H44.2284V1.23816H49.3458V17.9191L47.7625 15.5159H56.3857V20.492Z" fill="#F9FAFD"/>
<path d="M70.2184 20.492H58.0611V1.23816H63.1785V17.9191L61.5952 15.5159H70.2184V20.492Z" fill="#F9FAFD"/>
<path d="M77.0112 20.492H71.8938V1.23816H77.0112V20.492Z" fill="#F9FAFD"/>
<path d="M86.5022 21.0009C85.2959 21.0009 84.1933 20.8312 83.1943 20.492C82.2142 20.1338 81.3377 19.6249 80.5649 18.9652C79.811 18.3055 79.1796 17.5045 78.6707 16.562L82.5158 14.0458C83.0058 14.7431 83.6373 15.3086 84.4101 15.7421C85.2017 16.1568 86.0028 16.3641 86.8132 16.3641C87.4352 16.3641 87.897 16.2416 88.1986 15.9966C88.519 15.7515 88.6793 15.45 88.6793 15.0918C88.6793 14.8468 88.6039 14.6301 88.4531 14.4416C88.3211 14.2531 88.0478 14.074 87.6332 13.9044C87.2185 13.7159 86.6153 13.5368 85.8237 13.3672C84.165 12.9902 82.8456 12.519 81.8655 11.9536C80.8854 11.3693 80.188 10.6719 79.7733 9.86137C79.3586 9.03204 79.1513 8.08961 79.1513 7.03409C79.1513 5.86548 79.4529 4.80996 80.056 3.86753C80.6592 2.90626 81.5168 2.14289 82.6289 1.57743C83.7598 1.01198 85.098 0.729248 86.6436 0.729248C88.3777 0.729248 89.8573 1.07795 91.0824 1.77534C92.3076 2.45389 93.25 3.33035 93.9097 4.40472L90.0646 7.17545C89.6311 6.59115 89.0468 6.17648 88.3117 5.93145C87.5955 5.66757 86.9075 5.53563 86.2478 5.53563C85.6635 5.53563 85.1923 5.64872 84.8342 5.8749C84.4949 6.08224 84.3252 6.37439 84.3252 6.75136C84.3252 7.12833 84.5137 7.42991 84.8907 7.65609C85.2865 7.88227 86.0593 8.12731 87.2091 8.39118C88.7924 8.74931 90.0835 9.2111 91.0824 9.77655C92.1003 10.3232 92.8448 11.0111 93.316 11.8405C93.8061 12.651 94.0511 13.6499 94.0511 14.8374C94.0511 16.0248 93.7495 17.0898 93.1464 18.0322C92.5432 18.9558 91.6762 19.6815 90.5453 20.2092C89.4144 20.737 88.0667 21.0009 86.5022 21.0009Z" fill="#F9FAFD"/>
<path d="M94.82 10.8792C94.82 9.40901 95.0556 8.06134 95.5268 6.83618C95.998 5.61102 96.6671 4.5555 97.5342 3.66962C98.4012 2.76489 99.4379 2.0675 100.644 1.57743C101.85 1.08737 103.189 0.84234 104.659 0.84234C106.129 0.84234 107.467 1.08737 108.674 1.57743C109.899 2.0675 110.945 2.76489 111.812 3.66962C112.698 4.5555 113.376 5.61102 113.848 6.83618C114.319 8.06134 114.554 9.40901 114.554 10.8792C114.554 12.3494 114.319 13.6971 113.848 14.9222C113.376 16.1474 112.698 17.2123 111.812 18.117C110.945 19.0029 109.899 19.6909 108.674 20.181C107.467 20.6522 106.129 20.8878 104.659 20.8878C103.189 20.8878 101.85 20.6522 100.644 20.181C99.4379 19.6909 98.4012 19.0029 97.5342 18.117C96.6671 17.2123 95.998 16.1474 95.5268 14.9222C95.0556 13.6971 94.82 12.3494 94.82 10.8792ZM100.05 10.8792C100.05 11.9347 100.239 12.83 100.616 13.5651C101.012 14.3002 101.558 14.8562 102.256 15.2332C102.953 15.6102 103.754 15.7987 104.659 15.7987C105.583 15.7987 106.393 15.6102 107.09 15.2332C107.788 14.8562 108.334 14.3002 108.73 13.5651C109.126 12.8112 109.324 11.9064 109.324 10.8509C109.324 9.7954 109.126 8.9001 108.73 8.165C108.334 7.42991 107.788 6.87388 107.09 6.49691C106.393 6.11993 105.583 5.93145 104.659 5.93145C103.754 5.93145 102.953 6.12936 102.256 6.52518C101.558 6.90215 101.012 7.45818 100.616 8.19328C100.239 8.92837 100.05 9.82368 100.05 10.8792Z" fill="#F9FAFD"/>
<path d="M128.341 20.492L119.265 7.65609L121.187 7.14718V20.492H116.07V1.23816H120.848L129.896 14.074L127.973 14.5829V1.23816H133.119V20.492H128.341Z" fill="#F9FAFD"/>
<g clip-path="url(#clip1_1119_4221)">
<path d="M60.5236 2.5676C60.6888 2.66823 60.8421 2.81594 61.0203 2.85933C61.3895 2.95165 61.7717 2.95165 62.1281 3.05043C62.2813 3.0929 62.3949 3.28215 62.5592 3.43632C62.8362 3.39109 63.4021 3.6745 63.5646 4.01608C63.7109 4.33933 63.9693 4.59871 64.292 4.74632C64.5533 4.87834 64.7638 5.23099 64.8709 5.5301C65.2014 6.45329 65.2817 7.42448 65.002 8.3689C64.8921 8.73817 64.5228 9.03082 64.3151 9.3844C63.8867 10.1119 63.2885 10.6972 62.7457 11.3296C62.4964 11.6213 62.2841 11.9462 62.0164 12.2213C61.7951 12.4567 61.5407 12.6585 61.2612 12.8205C60.6353 13.1648 59.9854 13.4667 59.3465 13.7861C59.0474 13.9357 58.7649 14.1296 58.4529 14.2404C58.0448 14.3853 57.6497 14.5515 57.1678 14.4573C56.8456 14.3936 56.48 14.5819 56.1292 14.6235C55.9703 14.652 55.8064 14.6286 55.6617 14.5568C55.5171 14.485 55.3994 14.3685 55.3261 14.2247C55.1867 13.9736 55.0232 13.7335 54.9032 13.4741C54.7638 13.1695 54.9199 13.0485 55.2559 13.0125C55.8098 12.9451 56.3831 12.8611 56.9056 12.6682C57.7337 12.3592 58.5413 11.9978 59.3234 11.5862C59.8158 11.314 60.276 10.9873 60.6953 10.6122C61.0803 10.2827 61.3471 9.78968 61.7662 9.53119C62.3376 9.17853 62.5518 8.62739 62.8343 8.1021C62.9959 7.7957 63.1318 7.47642 63.2405 7.14752C63.3001 6.98844 63.3078 6.81461 63.2627 6.65085C62.9516 5.81998 62.6358 5.04728 61.6009 4.80448C60.9141 4.64385 60.2559 4.35951 59.5349 4.37428C59.3911 4.37569 59.253 4.43028 59.1471 4.52753C58.6855 5.05189 58.067 5.31685 57.4466 5.57903C57.344 5.62039 57.2479 5.67636 57.1613 5.74521C57.058 5.83106 56.9361 6.03786 56.8844 6.02216C56.1911 5.76367 56.0046 6.46252 55.5864 6.70255C54.9734 7.05521 54.401 7.47618 53.8 7.84914C53.3781 8.11041 52.9165 8.31074 52.5076 8.58769C51.7485 9.09617 51.1029 9.75625 50.6113 10.5264C50.2679 11.0609 49.7897 11.5225 49.3752 12.021C49.0567 12.4041 48.7557 12.8039 48.4243 13.1759C47.9683 13.6901 47.4845 14.1794 47.0239 14.6899C46.7238 15.0223 46.4081 15.3482 46.1598 15.7184C45.5938 16.5612 45.0288 17.4087 44.5303 18.2922C43.8056 19.5773 43.1659 20.9076 42.9074 22.3792C42.7986 22.9712 42.7255 23.5693 42.6886 24.1701C42.6526 24.8884 43.2157 25.2244 43.7179 25.5595C44.2092 25.8889 44.7975 26.0422 45.387 25.9943C46.048 25.9279 46.7847 26.071 47.3691 25.5808C47.4217 25.5364 47.5039 25.4672 47.5482 25.482C48.0763 25.6546 48.392 25.2373 48.7834 25.0425C49.1416 24.8644 49.4888 24.6622 49.8313 24.4554C50.4166 24.1018 51.0148 23.7649 51.5687 23.3679C52.0091 23.0522 52.3792 22.6413 52.8048 22.3025C53.2507 21.9471 53.6846 21.5289 54.197 21.3156C54.7555 21.083 55.0463 20.6233 55.4544 20.2614C55.5929 20.1386 55.7913 20.0841 55.9603 19.9964C56.1012 19.9384 56.2351 19.8644 56.3591 19.7758C56.8124 19.3806 57.262 18.9791 57.6977 18.5646C58.1309 18.1592 58.5273 17.7162 58.8822 17.2407C58.644 17.2407 58.3578 17.1558 58.1778 17.2582C57.8085 17.4687 57.4632 17.3256 57.1078 17.3136C57.0506 17.3136 56.9786 17.2416 56.9407 17.2601C56.4468 17.4973 55.9631 17.7586 55.4636 17.9839C55.1867 18.1076 54.8857 18.1593 54.605 18.2682C54.1259 18.4528 53.6449 18.6375 53.1824 18.8572C52.7356 19.0714 52.3054 19.3243 51.8807 19.5819C51.7778 19.6637 51.7037 19.7763 51.6693 19.9032C51.5825 20.1663 51.5336 20.434 51.2225 20.5568C51.1302 20.5909 51.1154 20.7719 51.0379 20.8614C50.9188 20.9981 50.784 21.2002 50.64 21.215C50.5455 21.214 50.4524 21.1914 50.368 21.149C50.2835 21.1066 50.2098 21.0455 50.1525 20.9704C49.7205 20.3112 49.5303 19.5681 49.7436 18.8027C49.8359 18.4621 50.1728 18.1953 50.351 17.8694C50.7323 17.1733 51.3785 16.7486 52.0321 16.4274C52.3386 16.2769 52.7282 15.8513 53.2055 16.1652C53.247 16.1929 53.4141 16.095 53.4741 16.0175C53.7456 15.6676 54.1278 15.7211 54.498 15.6907C55.231 15.6307 55.9612 15.5494 56.6924 15.4747C56.721 15.4747 56.7588 15.4285 56.7727 15.4368C57.2684 15.7239 57.7799 15.4848 58.283 15.4903C58.5203 15.4903 58.7548 15.5993 58.9773 15.3851C59.0299 15.3353 59.2394 15.4774 59.3742 15.4774C59.9623 15.4571 60.5541 15.3593 61.1366 15.3999C61.5003 15.4257 61.8539 15.6417 62.2066 15.7858C62.3146 15.8301 62.4097 15.987 62.5029 15.9796C63.3679 15.9104 63.4067 16.6785 63.667 17.1733C63.7307 17.2961 63.4667 17.6284 63.3042 17.8195C63.0928 18.0725 62.9017 17.7918 62.7411 17.7088C62.394 17.5315 62.0875 17.2749 61.7468 17.0838C61.6766 17.045 61.4699 17.1142 61.42 17.1936C61.023 17.8168 60.6611 18.4612 60.2623 19.0834C60.0477 19.404 59.9148 19.7723 59.8755 20.1561C59.8247 20.5956 59.4398 20.9925 59.2127 21.4153C58.7123 22.3459 58.1685 23.2617 57.742 24.2218C57.4401 24.9031 57.3007 25.6565 57.0958 26.3793C57.0691 26.4612 57.0637 26.5486 57.0801 26.6332C57.2426 27.2748 57.4226 27.9109 57.5777 28.5534C57.6599 28.8913 57.0349 29.4397 56.7099 29.3252C55.9086 29.0409 55.1903 28.5156 54.8783 27.7964C54.6743 27.3247 54.3558 26.683 54.7038 26.022C55.0426 25.3758 55.2273 24.6539 55.5181 23.9818C55.6704 23.6291 55.904 23.3134 56.1015 22.9811C56.3286 22.5989 56.5557 22.2167 56.7828 21.8345C56.9841 21.5222 57.1448 21.1856 57.2611 20.8328C57.0903 20.9344 56.8613 20.9953 56.7607 21.1439C56.4376 21.6194 55.832 21.8409 55.663 22.4687C55.6012 22.6977 55.3002 22.8694 55.0962 23.0522C54.6401 23.462 54.1822 23.8692 53.7114 24.2624C53.4991 24.4397 53.2581 24.5828 53.0292 24.7379C52.6645 24.9862 52.3155 25.2669 51.9278 25.4764C51.1043 25.914 50.2596 26.3073 49.4241 26.7255C49.0429 26.9148 48.6625 27.1086 48.2831 27.3016C48.2286 27.3293 48.1834 27.3847 48.1271 27.3985C47.4337 27.5619 46.7423 27.753 46.0407 27.8601C45.7822 27.9007 45.4794 27.7853 45.2199 27.6828C44.6649 27.4757 44.124 27.2323 43.6007 26.9545C43.2766 26.7744 42.7597 26.8474 42.6673 26.2935C42.6489 26.1864 42.3147 26.1624 42.2214 26.0322C41.9149 25.6038 41.5983 25.1681 41.3906 24.6908C41.0833 24.022 40.8361 23.3272 40.652 22.6146C40.4434 21.7542 40.5597 20.8836 40.8274 20.0389C40.9576 19.6327 41.0702 19.2219 41.2041 18.8157C41.2964 18.5387 41.3777 18.2433 41.5244 17.9922C42.2787 16.7016 43.1289 15.4783 44.1684 14.3844C44.4378 14.1037 44.6352 13.7619 44.7436 13.3883C44.9042 12.7753 45.328 12.3884 45.7342 11.9721C46.1754 11.5225 46.6241 11.0775 47.0774 10.6362C47.1697 10.5439 47.298 10.4867 47.3802 10.3593L47.9609 9.9817C47.9156 9.92354 47.8686 9.86538 47.8963 9.89862C48.2923 9.52934 48.6967 9.17299 49.0715 8.79079C49.2026 8.65509 49.1989 8.33566 49.5146 8.56461C49.534 8.57846 49.6383 8.4926 49.6928 8.44183C50.2218 7.95254 50.7083 7.41063 51.2862 6.9832C51.8789 6.5373 52.5574 6.21418 53.1917 5.82552C53.7105 5.5061 54.2072 5.14698 54.7334 4.84233C55.2596 4.53768 55.7969 4.30781 56.3139 4.01147C56.6185 3.83975 56.877 3.5868 57.1817 3.41786C57.802 3.07351 58.4963 2.99412 59.1868 2.88795C59.5782 2.82887 59.9558 2.67469 60.3399 2.56299L60.5236 2.5676Z" fill="#EA1646"/>
<path d="M107.845 17.7374C107.383 18.2682 106.914 18.7945 106.46 19.3299C105.844 20.0509 105.26 20.807 104.613 21.4975C104.167 21.9804 103.625 22.3727 103.159 22.838C102.953 23.0439 102.861 23.3633 102.66 23.5766C102.368 23.8849 101.982 23.9588 101.552 23.9006C101.236 23.8572 100.906 23.9274 100.59 23.8711C100.351 23.8286 100.045 23.727 99.9227 23.5461C99.5839 23.0411 99.247 22.5149 99.2119 21.8705C99.1953 21.5631 99.1685 21.2557 99.1427 20.9049C98.8565 21.0627 98.5703 21.192 98.3118 21.3665C97.2594 22.0884 96.3731 22.9977 95.4342 23.8591C94.8923 24.3548 94.2442 24.7361 93.6414 25.1654C93.3667 25.376 93.0794 25.5697 92.781 25.7451C92.5502 25.8707 92.2806 25.9298 92.0369 26.0091C90.8848 24.8422 90.9051 24.5321 91.3621 23.3107C91.2808 23.3107 91.2023 23.2867 91.1479 23.3107C90.3881 23.6864 89.6209 24.0492 88.8787 24.4591C88.6017 24.6142 88.4051 24.9207 88.1263 25.0832C87.5659 25.4008 86.9778 25.6722 86.3907 25.9399C86.3095 25.9768 86.1682 25.8568 86.0593 25.8651C85.9008 25.8888 85.7447 25.9268 85.5931 25.9787C85.6176 26.094 85.6518 26.2071 85.6955 26.3166C85.9328 26.8022 85.87 27.2194 85.5109 27.6026C85.3668 27.7586 85.235 27.9256 85.1167 28.102C84.8398 28.5091 84.3717 28.4759 83.9987 28.4713C83.5916 28.4713 83.1679 28.2866 82.7829 28.1131C82.4349 27.9506 82.2124 27.6515 82.3878 27.2167C82.529 26.8696 82.7737 26.7274 83.1485 26.8169C83.2404 26.8288 83.3335 26.8288 83.4254 26.8169C83.5362 26.4015 83.6378 26.0202 83.7375 25.6436C83.4384 25.2355 82.9325 24.9244 82.8401 24.3299C82.758 23.8018 82.7081 23.2701 82.638 22.6838C82.3499 22.453 82.1856 22.8426 82.0333 22.9783C81.4489 23.4972 80.7879 23.8877 80.125 24.2865C79.9247 24.4167 79.7552 24.589 79.6284 24.7915C79.2591 25.362 78.1393 25.374 77.7349 24.8302C77.3592 24.3262 77.2659 23.8027 77.3786 23.1962C77.4995 22.55 77.5752 21.8871 77.6454 21.2298C77.6685 21.0138 77.614 20.7885 77.5826 20.4331C76.4083 21.4957 75.3245 22.4641 74.2545 23.451C73.9274 23.734 73.6329 24.0526 73.3766 24.401C73.2049 24.6827 73.0936 24.9971 73.0498 25.3241C73.0045 25.5845 72.915 25.8208 72.6657 25.7922C72.374 25.758 71.9641 25.9233 71.8127 25.4931C71.6465 25.0204 71.4305 24.5468 71.376 24.0575C71.3317 23.6596 71.4536 23.2267 71.5764 22.8306C71.6862 22.4798 71.8995 22.1604 72.1303 21.7053C71.2846 21.8631 70.5396 22.0044 69.7937 22.1392C69.6515 22.165 69.5047 22.1622 69.3607 22.1789C69.2881 22.1783 69.2165 22.1954 69.1521 22.2287C68.8871 22.4337 68.6277 22.6478 68.372 22.8639C68.2933 22.9298 68.224 23.0062 68.1661 23.091C67.7654 23.6836 67.3796 24.2865 66.966 24.8681C66.9023 24.9558 66.689 24.9207 66.5736 24.9909C66.0917 25.2854 65.6781 25.6842 65.0725 25.7682C64.7909 25.8079 64.5408 26.0304 64.2592 26.1153C63.336 26.3923 62.1312 25.6851 61.8497 24.7665C61.7001 24.2809 61.6567 23.7243 61.9835 23.2054C62.2051 22.8519 62.3279 22.4226 62.4276 22.0099C62.4987 21.7126 62.5365 21.4265 62.7913 21.2187C62.8308 21.1638 62.8471 21.0954 62.8366 21.0286C62.7553 19.9207 63.1791 19.065 64.0072 18.3089C64.7688 17.6128 65.56 17.0026 66.5542 16.7505C67.0057 16.6361 67.5125 16.7099 67.9907 16.7431C68.2252 16.7598 68.5243 16.8115 68.6674 16.9647C69.0044 17.3247 69.3561 17.7189 69.5352 18.1648C69.8121 18.8535 69.7928 19.6041 69.586 20.326C69.4936 20.6602 69.3395 20.9787 69.2075 21.3194C69.826 21.1754 70.4371 21.0286 71.0538 20.8929C71.2431 20.8504 71.4416 20.8513 71.6317 20.8098C72.422 20.6362 72.9777 20.2032 73.2012 19.3908C73.2224 19.3105 73.371 19.2717 73.4172 19.1896C73.4865 19.0429 73.5451 18.8914 73.5926 18.7363C73.7375 18.5701 73.9157 18.3956 74.0597 18.1962C74.2388 17.9461 74.4419 17.8657 74.73 17.9978C74.8675 18.0615 75.0217 18.0845 75.1638 18.139C75.7436 18.3633 75.9172 18.8323 75.5433 19.3484C75.0263 20.0611 74.4502 20.7331 73.9074 21.4265C73.8074 21.5742 73.7174 21.7284 73.6378 21.8881L73.7301 21.9804C74.0736 21.6379 74.4096 21.2861 74.7641 20.9556C75.0669 20.6787 75.3873 20.4119 75.7085 20.1534C75.8276 20.0611 75.9809 20.0066 76.1027 19.9134C76.8136 19.3687 77.5134 18.8055 78.2316 18.2729C78.6009 17.9959 78.9701 17.6876 79.3874 17.55C79.7253 17.4392 80.1583 17.5011 80.5165 17.5999C80.907 17.7079 81.0113 18.1538 80.775 18.4953C80.1527 19.3881 79.8167 20.3879 79.6284 21.4495C79.5213 22.0524 79.3985 22.6497 79.3126 23.259C79.2877 23.4344 79.3662 23.6283 79.3976 23.8074L79.5499 23.8784C80.1287 23.379 80.6974 22.8629 81.291 22.3856C81.796 21.9776 82.3647 21.6471 82.8411 21.2104C83.2362 20.8485 83.5381 20.3842 83.8806 19.9651C83.9664 19.8598 84.0264 19.7121 84.1363 19.6521C84.8684 19.2514 85.077 18.427 85.606 17.8639C85.6365 17.8316 85.6272 17.754 85.6605 17.7319C86.3547 17.2463 87.1034 16.8244 87.7367 16.2695C88.37 15.7147 89.1067 15.808 89.8286 15.8181C90.2902 15.8264 90.5866 16.4514 90.6835 16.9832C90.8192 17.7217 90.4343 18.3329 90.3826 19.0142C90.3752 19.112 90.2533 19.1988 90.1896 19.2911C90.0973 19.4287 90.005 19.5681 89.92 19.7075L90.041 19.7998C89.6062 20.1312 89.1686 20.459 88.7356 20.7941C88.3589 21.0858 87.9352 21.0443 87.661 20.6814C87.3102 20.2199 87.3637 19.8303 87.7127 19.4905C88.0958 19.1157 88.7014 18.9791 88.8898 18.4012C89.0273 17.9784 89.259 17.5583 88.8898 17.0432C88.2168 17.7642 87.5244 18.4529 86.8994 19.1979C86.5984 19.557 86.423 20.0223 86.1959 20.4414C85.8728 21.0313 85.5035 21.6037 85.2478 22.2241C85.0739 22.6741 84.9762 23.1499 84.9588 23.6319C84.9293 24.22 85.1693 24.3188 85.7177 24.0649C86.4609 23.7197 87.1874 23.3596 88.0072 23.175C88.6147 23.0374 89.1723 22.6654 89.7428 22.3783C90.4084 22.0431 91.0897 21.732 91.7138 21.3258C92.1274 21.059 92.4089 20.5873 92.8262 20.3297C93.3552 20.0066 93.3626 19.353 93.851 19.0049C94.6818 18.4132 95.1573 17.4355 96.0777 16.925C97.1458 16.3351 98.2389 16.0757 99.4085 16.625C99.812 16.8096 100.18 17.5482 100.079 17.9756C100.011 18.2646 99.4011 18.488 99.2341 18.2525C98.8759 17.7402 98.3339 17.8537 97.889 17.8704C97.5945 17.8814 97.2871 18.2184 97.0341 18.4603C96.3786 19.0862 95.7158 19.7093 95.125 20.3943C94.6874 20.9002 94.3596 21.5022 93.9774 22.0662C93.875 22.1632 93.7189 22.2601 93.6322 22.4013C93.5131 22.5943 93.4688 22.8325 93.3552 23.0273C93.2629 23.1731 93.1143 23.2811 92.9859 23.4048L93.0903 23.5027C93.5186 23.1131 93.9451 22.7217 94.3753 22.334C94.4538 22.2638 94.5369 22.1622 94.6283 22.1493C95.245 22.0625 95.4878 21.528 95.8617 21.1504C95.9235 21.0867 95.9872 20.9852 96.0583 20.9769C96.8827 20.8781 97.3508 20.2032 97.997 19.8238C98.8002 19.3521 99.511 18.632 100.558 18.6486C101.551 18.6643 102.072 19.221 101.874 20.2005C101.717 20.9796 101.465 21.7385 101.248 22.538C101.549 22.7115 101.812 22.5694 102.05 22.333C102.168 22.2158 102.327 22.1041 102.374 21.9638C102.565 21.4025 103.219 21.4449 103.535 21.0175C103.852 20.5901 104.327 20.3085 104.679 19.9097C105.203 19.3188 105.673 18.6809 106.176 18.0725C106.644 17.5085 107.145 16.9712 107.595 16.3942C108.57 15.1497 109.514 13.8803 110.487 12.635C110.891 12.1171 111.351 11.6435 111.764 11.132C112.189 10.6049 112.581 10.0519 113.002 9.52107C113.16 9.31439 113.343 9.1283 113.547 8.96716C113.907 8.6902 114.244 8.93392 114.539 9.10656C114.785 9.2515 114.841 9.49706 114.772 9.82572C114.622 10.5486 114.146 11.06 113.747 11.6278C113.185 12.4279 112.628 13.228 112.076 14.0281C111.799 14.4306 111.497 14.822 111.28 15.2559C110.802 16.2086 109.953 16.9259 109.666 18.0153C109.539 18.4972 109.062 18.8849 108.755 19.3225C108.643 19.4842 108.546 19.6553 108.465 19.834C108.216 20.3713 107.991 20.9215 107.726 21.4523C107.596 21.7136 107.357 21.9231 107.242 22.1909C106.988 22.7946 107.029 23.4935 106.65 24.0668C106.537 24.2376 106.481 24.4462 106.343 24.7693C106.771 24.5274 107.153 24.3807 107.45 24.1323C108.263 23.4529 109.03 22.7161 109.837 22.0284C110.327 21.6102 110.869 21.252 111.367 20.8412C111.618 20.6283 111.847 20.3901 112.049 20.1303C112.369 19.7324 112.677 19.3234 112.964 18.9006C113.359 18.3181 113.747 17.7291 114.106 17.1235C114.396 16.6333 114.667 16.493 115.094 16.6961C115.569 16.9213 115.792 17.4641 115.556 17.8962C115.205 18.5424 114.826 19.1757 114.462 19.8173C113.938 20.7405 113.389 21.6563 112.906 22.6026C112.678 23.0494 112.561 23.5581 112.428 24.0483C112.39 24.1868 112.471 24.3576 112.497 24.5145C112.63 24.4674 112.797 24.4564 112.893 24.3686C113.282 24.0154 113.661 23.6486 114.03 23.2682C114.5 22.778 114.981 22.2952 115.405 21.768C116.073 20.9372 116.73 20.098 117.328 19.2191C117.669 18.7151 117.889 18.127 118.151 17.5703C118.206 17.454 118.195 17.3081 118.234 17.1817C118.278 17.0413 118.343 16.9047 118.435 16.6813C118.251 16.4394 118.013 16.0895 118.369 15.6713C118.646 15.3445 118.937 15.3224 119.23 15.627C119.61 16.0236 119.841 16.5399 119.883 17.0877C119.925 17.6355 119.776 18.181 119.461 18.6311C119.133 19.1 118.79 19.5589 118.478 20.0389C118.095 20.6298 117.783 21.2732 117.354 21.828C117.014 22.2684 116.54 22.6044 116.138 22.9986C115.997 23.1344 115.9 23.3125 115.768 23.4602C115.562 23.6984 115.341 23.9218 115.132 24.1628C115.02 24.2911 114.925 24.4342 114.812 24.5634C114.767 24.6183 114.707 24.659 114.639 24.6807C114.323 24.7592 114.131 24.9447 113.936 25.2198C113.566 25.746 112.969 25.9584 112.337 25.9824C111.949 25.986 111.562 25.9656 111.177 25.9214C111.106 25.9074 111.043 25.8676 111 25.8097C110.538 25.2097 110.332 24.5634 110.57 23.8C110.679 23.4501 110.697 23.0725 110.774 22.5998C110.589 22.7346 110.461 22.778 110.431 22.8583C110.231 23.4039 109.703 23.5682 109.296 23.8738C108.834 24.2219 108.403 24.6124 107.937 24.9493C107.51 25.263 107.066 25.553 106.607 25.8181C106.302 25.9935 105.13 25.807 104.998 25.566C104.748 25.0906 104.607 24.6013 104.737 24.0289C104.995 22.8999 105.496 21.8982 106.115 20.9316C106.613 20.1525 107.038 19.3271 107.506 18.5258C107.644 18.2858 107.806 18.0642 107.956 17.827L107.845 17.7374ZM67.2245 21.3821C67.4091 21.0341 67.5605 20.7608 67.7064 20.4867C67.9639 20.0011 68.3674 19.545 68.023 18.9339C68.007 18.8753 68.0102 18.8132 68.0322 18.7566C68.2012 18.0651 67.9658 17.8436 67.2642 18.0596C66.8099 18.1999 66.377 18.4289 65.9154 18.5212C64.947 18.7123 64.4383 19.5312 64.4466 20.4488C64.4466 20.6584 64.466 20.8855 64.7919 21.0027C65.5969 21.3083 66.4222 21.3628 67.2245 21.3821ZM66.293 22.742L63.8881 22.3432C63.7653 22.8583 63.5954 23.3707 63.54 23.8941C63.516 24.1148 63.6887 24.5145 63.8493 24.5597C64.1078 24.6336 64.5177 24.5791 64.7097 24.4065C65.2682 23.9043 65.7538 23.3171 66.2893 22.742H66.293Z" fill="#EA1646"/>
<path d="M133.694 22.9487C133.914 23.4481 134.148 23.8285 134.247 24.2412C134.408 24.8874 134.121 25.4718 133.724 25.9564C132.751 27.1483 131.393 27.4898 129.939 27.4852C128.841 27.4852 127.943 26.2685 128.302 25.2511C128.453 24.8265 128.873 24.4849 129.203 24.1368C129.811 23.4961 130.627 23.1786 131.391 22.7807C131.482 22.7166 131.566 22.6423 131.64 22.5591C130.872 22.2277 130.673 21.5436 130.476 20.878C129.971 21.4014 129.485 21.9858 128.916 22.4723C128.347 22.9588 127.689 23.3715 127.07 23.8082C126.592 24.1424 126.118 24.4867 125.62 24.7904C124.864 25.252 124.098 25.6961 123.149 25.5982C122.919 25.5823 122.688 25.6177 122.473 25.7016C121.764 25.9638 121.035 25.8669 120.408 25.5908C119.954 25.3914 119.703 24.8523 119.597 24.2882C119.487 23.6983 119.718 23.1804 119.851 22.6477C120.013 22.015 120.251 21.4043 120.56 20.8291C120.915 20.1964 121.317 19.5907 121.76 19.0168C122.222 18.3992 122.709 17.7992 123.225 17.2277C123.467 16.9591 123.805 16.7763 124.101 16.5538C124.441 16.2971 124.932 16.2768 125.183 15.8688C125.221 15.806 125.34 15.7912 125.422 15.758L126.077 15.5004C126.039 15.4737 126.093 15.5401 126.159 15.5531C126.626 15.6454 126.725 15.9685 126.881 16.3885C127.066 16.8963 127.284 17.3634 127.224 17.9146C127.191 18.2174 127.233 18.5525 127.116 18.8165C126.545 20.1016 125.847 21.2916 124.554 22.0117C123.852 22.4012 123.192 22.8711 122.496 23.2746C122.26 23.4112 121.969 23.4537 121.697 23.5414C121.709 24.0224 121.904 24.1267 122.392 24.003C122.923 23.8636 123.477 23.7029 124.013 23.726C124.872 23.7657 125.44 23.2201 126.113 22.8813C126.451 22.7114 126.77 22.5009 127.096 22.3071C127.266 22.2055 127.465 22.1271 127.599 21.9923C128.672 20.9389 129.955 20.0794 130.699 18.7233C131.138 17.9136 131.775 17.228 132.55 16.7301C132.609 16.6913 132.63 16.6 132.681 16.5455C133.151 16.0211 133.696 15.6786 134.442 15.6786C134.884 15.6786 135.326 15.5743 135.769 15.5411C135.899 15.5419 136.025 15.5832 136.13 15.6592C136.743 16.0848 137.17 17.2093 136.907 17.9487C136.621 18.7547 136.229 19.5246 135.572 20.1145C135.072 20.5641 134.066 20.4118 133.72 19.8265C133.661 19.7259 133.642 19.52 133.704 19.4489C133.811 19.3261 133.992 19.2643 134.15 19.1904C134.259 19.1406 134.427 19.1553 134.494 19.0778C134.98 18.5497 135.623 18.1223 135.673 17.3006C135.673 17.236 135.752 17.176 135.793 17.116C135.268 16.6424 135.295 16.7209 134.685 17.0865C133.868 17.5748 133.149 18.2124 132.567 18.9661C132.037 19.6548 131.778 20.4579 132.3 21.3027C132.359 21.395 132.485 21.4476 132.584 21.5214C132.66 21.5805 132.777 21.6332 132.797 21.7061C132.901 22.1077 133.091 22.032 133.401 21.9055C134.281 21.5464 135.182 21.2417 136.078 20.9149C136.168 20.8945 136.254 20.8609 136.334 20.8152C136.965 20.3241 137.767 20.337 138.482 20.1007C138.828 19.9862 139.221 19.9391 139.486 20.3776C139.637 20.6241 139.633 20.7238 139.366 20.8051C139.02 20.9094 138.672 21.0072 138.329 21.1189C137.276 21.4605 136.213 21.7753 135.177 22.164C134.644 22.3588 134.161 22.693 133.694 22.9487ZM124.631 18.4251C124.514 18.4843 124.405 18.5584 124.308 18.6457C124.107 18.871 123.992 19.1646 123.661 19.2809C123.534 19.3252 123.449 19.5144 123.364 19.6502C123.256 19.8228 123.179 20.0194 123.069 20.1874C122.729 20.7247 122.38 21.2565 122.04 21.7929C122.023 21.8206 122.052 21.8769 122.069 21.9701C122.228 21.9166 122.393 21.8953 122.517 21.8132C122.959 21.5196 123.365 21.1669 123.823 20.9075C124.516 20.5124 124.969 19.9206 125.342 19.2458C125.442 19.0612 125.447 18.8156 125.575 18.667C125.949 18.234 125.805 17.7438 125.866 17.2739L125.726 17.1963L124.631 18.4251ZM129.536 25.9398C129.8 25.9546 129.998 26.0238 130.153 25.9657C131.013 25.6379 131.892 25.3453 132.539 24.6261C132.76 24.3796 132.908 24.0934 132.622 23.8876C132.496 23.7953 132.16 23.9799 131.925 24.0722C131.786 24.1248 131.678 24.2568 131.539 24.3095C130.719 24.6234 130.047 25.1062 129.534 25.9444L129.536 25.9398Z" fill="#EA1646"/>
</g>
<mask id="mask0_1119_4221" style="mask-type:alpha" maskUnits="userSpaceOnUse" x="55" y="0" width="12" height="8">
<rect x="55.9043" width="10.2088" height="7.0489" fill="#D9D9D9"/>
</mask>
<g mask="url(#mask0_1119_4221)">
<path d="M70.2179 20.4918H58.0605V1.23804H63.1779V17.919L61.5947 15.5158H70.2179V20.4918Z" fill="#F9FAFD"/>
</g>
</g>
<defs>
<clipPath id="clip0_1119_4221">
<rect width="140" height="29.1435" fill="white"/>
</clipPath>
<clipPath id="clip1_1119_4221">
<rect width="99.0411" height="26.7733" fill="white" transform="translate(40.543 2.56787)"/>
</clipPath>
</defs>
</svg>
