<svg width="95" height="88" viewBox="0 0 95 88" fill="none" xmlns="http://www.w3.org/2000/svg">
<path d="M94.1025 70.989L94.458 71.2675C92.2781 71.4588 90.0193 70.9438 87.5768 69.5653C87.0849 69.2737 86.7289 69.6727 86.9032 70.1669C87.3254 71.2975 87.7024 72.4173 88.0927 73.5521L87.9944 73.5617C87.1937 74.0611 86.1199 73.9954 84.8315 73.3904C84.1593 73.0765 83.7256 73.4882 83.9498 74.1779L86.0863 80.8763C83.4754 79.6481 81.0481 78.0672 78.6237 75.9712C77.9415 75.3669 77.3372 75.9067 77.5615 76.5964C78.6864 80.0689 79.8346 83.5476 81.0048 87.0309C54.6685 62.4917 27.804 37.7799 0.000782847 15.5463C2.74355 15.985 5.46458 16.3596 8.17572 16.7429C8.55369 16.8072 8.93067 16.5513 8.70247 16.0566C8.01251 14.5664 7.33868 13.0942 6.65006 11.6055C9.81328 12.9337 12.8274 13.397 15.5147 12.7767C16.1982 12.6247 15.4967 11.2014 14.7928 11.2907L14.682 11.3062L14.5666 10.9776C13.4371 8.99537 12.3084 7.03399 11.1789 5.05173C12.8733 5.91178 14.5797 6.78533 16.274 7.64539C16.7957 7.91037 17.1678 7.62917 17.1277 7.12562C16.9532 4.85671 16.8968 2.5605 16.4844 0.204699L16.4085 0.000115208C43.315 22.3064 69.2136 45.7774 94.1025 70.989Z" fill="#EA1646"/>
</svg>
