<svg width="222" height="226" viewBox="0 0 222 226" fill="none" xmlns="http://www.w3.org/2000/svg">
<g id="Notes">
<g id="Note">
<rect x="33.6985" y="11.9245" width="188.405" height="181.624" rx="2.41311" transform="rotate(10.5635 33.6985 11.9245)" fill="#222222"/>
<rect x="33.6985" y="11.9245" width="188.405" height="181.624" rx="2.41311" transform="rotate(10.5635 33.6985 11.9245)" stroke="#404040" stroke-width="0.689459"/>
<g id="Holes">
<circle id="Ellipse 929" cx="68.6309" cy="32.8158" r="3.4473" transform="rotate(10.5635 68.6309 32.8158)" fill="#0D0E0D"/>
<circle id="Ellipse 930" cx="90.3194" cy="36.8604" r="3.4473" transform="rotate(10.5635 90.3194 36.8604)" fill="#0D0E0D"/>
<circle id="Ellipse 931" cx="112.009" cy="40.9051" r="3.4473" transform="rotate(10.5635 112.009 40.9051)" fill="#0D0E0D"/>
<circle id="Ellipse 932" cx="133.697" cy="44.9496" r="3.4473" transform="rotate(10.5635 133.697 44.9496)" fill="#0D0E0D"/>
<circle id="Ellipse 933" cx="155.386" cy="48.9942" r="3.4473" transform="rotate(10.5635 155.386 48.9942)" fill="#0D0E0D"/>
<circle id="Ellipse 934" cx="177.075" cy="53.0389" r="3.4473" transform="rotate(10.5635 177.075 53.0389)" fill="#0D0E0D"/>
</g>
<text id="Dont-forget-it" x="42.57" y="58.58" font-family="monospace, sans-serif" font-size="11" font-weight="bold" fill="#F9FAFD" transform="rotate(10.5635 42.57 58.58)">Don't forget it</text>
<g id="Text">
<rect x="44" y="81" width="8" height="8" rx="1.2" fill="none" stroke="#F9FAFD" stroke-width="0.8" transform="rotate(10.5635 44 81)"/>
<text id="Draw-your-own-avatar" x="57" y="90.23" font-family="monospace, sans-serif" font-size="9" fill="#F9FAFD" transform="rotate(10.5635 57 90.23)">Draw your own avatar</text>
<rect x="40" y="116" width="8" height="8" rx="1.2" fill="none" stroke="#F9FAFD" stroke-width="0.8" transform="rotate(10.5635 40 116)"/>
<text id="Create-a-new-e-mail" x="53" y="124.83" font-family="monospace, sans-serif" font-size="9" fill="#F9FAFD" transform="rotate(10.5635 53 124.83)">Create a new e-mail</text>
<rect x="30" y="155" width="8" height="8" rx="1.2" fill="none" stroke="#F9FAFD" stroke-width="0.8" transform="rotate(10.5635 30 155)"/>
<text id="Take-the-trash-out" x="43" y="164.48" font-family="monospace, sans-serif" font-size="9" fill="#F9FAFD" transform="rotate(10.5635 43 164.48)">Take the trash out</text>
</g>
<g id="Lines">
<path id="Line" d="M44.064 97.81C55.7399 99.8282 67.6454 100.626 79.3698 102.653C96.1957 105.561 112.928 108.746 129.72 111.799C149.774 115.445 169.532 120.337 189.621 123.809" stroke="#EA1646" stroke-width="0.689459" stroke-linecap="round"/>
<path id="Line_2" d="M39.1144 127.672C50.4002 129.947 61.4582 133.443 72.7909 135.728C89.0545 139.006 105.332 141.994 121.617 145.126C141.065 148.866 160.69 151.339 180.107 155.253" stroke="#EA1646" stroke-width="0.689459" stroke-linecap="round"/>
</g>
</g>
<path id="Tape" d="M129.683 22.7585L129.866 22.7662C129.053 23.612 128.097 24.1531 126.931 24.3517C126.694 24.3852 126.62 24.6962 126.767 24.8682C127.112 25.2534 127.438 25.6493 127.772 26.0475L127.735 26.0861C127.506 26.5985 127.08 26.94 126.484 27.1022C126.174 27.1877 126.072 27.5317 126.27 27.7783L128.174 30.1871C126.966 30.5149 125.773 30.6132 124.499 30.4682C124.138 30.4206 123.991 30.884 124.188 31.1305C125.182 32.3733 126.186 33.6109 127.198 34.843C113.066 32.436 98.7022 30.131 84.3737 29.3168C85.505 28.572 86.6175 27.8047 87.7277 27.0449C87.8842 26.9441 87.9888 26.6931 87.821 26.5395C87.3145 26.0781 86.8171 25.6195 86.3113 25.1582C87.7483 24.6859 88.9885 23.8587 89.928 22.6353C90.1679 22.3268 89.6676 21.9008 89.4098 22.1868L89.3694 22.2325L89.272 22.118C88.5163 21.5776 87.7643 21.0467 87.0087 20.5062C87.8023 20.3232 88.6027 20.1422 89.3963 19.9592C89.6407 19.9029 89.7394 19.6416 89.6428 19.4188C89.2104 18.4124 88.8193 17.3522 88.2809 16.3875L88.2187 16.3176C102.212 17.477 116.003 19.5335 129.683 22.7585Z" fill="#EA1646"/>
</g>
</svg>
