<svg width="22" height="40" viewBox="0 0 22 40" fill="none" xmlns="http://www.w3.org/2000/svg">
<rect x="0.5" y="0.5" width="21" height="39" rx="10.5" stroke="#F9FAFD"/>
<path fill-rule="evenodd" clip-rule="evenodd" d="M11 17C11.2761 17 11.5 17.2239 11.5 17.5V29.2929L14.6464 26.1464C14.8417 25.9512 15.1583 25.9512 15.3536 26.1464C15.5488 26.3417 15.5488 26.6583 15.3536 26.8536L11.3536 30.8536C11.1583 31.0488 10.8417 31.0488 10.6464 30.8536L6.64645 26.8536C6.45118 26.6583 6.45118 26.3417 6.64645 26.1464C6.84171 25.9512 7.15829 25.9512 7.35355 26.1464L10.5 29.2929V17.5C10.5 17.2239 10.7239 17 11 17Z" fill="#F9FAFD"/>
</svg>
