<svg width="199" height="63" viewBox="0 0 199 63" fill="none" xmlns="http://www.w3.org/2000/svg">
<g clip-path="url(#clip0_1119_4180)">
<path d="M17.1933 37.2633C16.2422 37.1327 15.3176 36.8532 14.4535 36.435C12.8247 36.7403 11.1427 36.5769 9.60311 35.9639C8.06349 35.3509 6.72952 34.3134 5.75631 32.9721C4.51774 31.2879 3.9345 29.2105 4.11551 27.1278C2.97599 25.562 2.39118 23.6608 2.4536 21.7253C2.51603 19.7897 3.22214 17.9303 4.4602 16.4411C4.48256 16.0183 4.5416 15.5982 4.63665 15.1856C4.95167 12.9529 6.11849 10.9286 7.89268 9.53701C9.20602 8.51668 10.779 7.88477 12.4332 7.71297C13.2476 6.1914 14.4936 4.94453 16.0146 4.12909C17.2493 3.51273 18.6093 3.18865 19.9892 3.18193C21.3692 3.17521 22.7322 3.48602 23.9729 4.09033C25.6129 3.79452 27.3032 3.96776 28.8492 4.59012C30.3951 5.21248 31.734 6.25867 32.7116 7.6083C33.9617 9.35957 34.5349 11.5044 34.3253 13.6458C35.3078 15.2029 35.7697 17.032 35.6443 18.8689C35.519 20.7058 34.8128 22.4552 33.6278 23.8643C33.6054 24.2871 33.5464 24.7072 33.4514 25.1198C33.1645 27.392 31.9888 29.4579 30.1818 30.865C29.0162 31.7481 27.6486 32.3261 26.2029 32.5464C25.3414 34.2814 23.9228 35.6772 22.1741 36.5106C20.6226 37.2414 18.8914 37.503 17.1933 37.2633Z" fill="#F9FAFD"/>
<path d="M34.7705 39.7331C31.9394 39.3821 29.2603 38.2558 27.0289 36.4783C24.8582 34.8034 23.2486 32.5076 22.4141 29.8959C21.9562 28.4882 21.8127 26.9972 21.9938 25.5281C22.2706 23.6585 23.1535 21.9315 24.5067 20.6122C24.0803 18.6895 24.1204 16.6928 24.6236 14.7888C25.1268 12.8848 26.0784 11.129 27.399 9.66804C29.0321 7.86527 31.145 6.56511 33.4903 5.91985C35.66 5.35698 37.9211 5.23924 40.1376 5.57373C43.2239 5.9192 46.1345 7.18626 48.4904 9.20982C49.8353 10.4216 50.8625 11.9448 51.482 13.6459C52.1014 15.347 52.2942 17.174 52.0434 18.9669C51.8255 20.4878 51.2249 21.9284 50.2978 23.1535C50.8696 24.9296 51.026 26.8132 50.7551 28.6592C50.3763 31.2677 49.1736 33.6868 47.3227 35.5633C45.689 37.2643 43.648 38.5199 41.3932 39.2112C39.2512 39.8716 36.9895 40.0499 34.7705 39.7331Z" fill="#F9FAFD"/>
<path d="M50.1973 41.9008C47.796 41.5825 45.5241 40.6255 43.6188 39.1296C41.7617 37.6485 40.3355 35.6965 39.4889 33.4771C38.5743 31.2508 38.2781 28.8187 38.6315 26.4379C38.9761 23.9904 39.8857 21.6568 41.2884 19.6218C42.6308 17.5944 44.4184 15.9003 46.5149 14.6687C48.909 13.2386 51.7136 12.6531 54.4798 13.0058C56.4479 13.2499 58.3311 13.9531 59.9774 15.0588C61.4131 16.0297 62.6438 17.2735 63.5994 18.7194C64.8314 20.5129 65.3492 22.7019 65.0512 24.8573C64.9122 25.9352 64.5568 26.974 64.0065 27.9113C64.7238 29.4043 64.9774 31.0779 64.7346 32.7164C64.4776 34.6971 63.551 36.5303 62.1085 37.9118C60.5507 39.4229 58.67 40.5605 56.6085 41.2389C54.5469 41.9174 52.3583 42.1189 50.2075 41.8284L50.1973 41.9008Z" fill="#F9FAFD"/>
<path d="M54.3288 40.1929C53.5649 39.2672 53.0042 38.1912 52.6831 37.0347C52.3621 35.8782 52.2879 34.6672 52.4654 33.4801L54.1145 21.7457C54.2766 20.5913 54.6702 19.4815 55.2717 18.4829C55.8732 17.4843 56.6703 16.6175 57.615 15.9345C58.8571 15.0425 60.3087 14.4865 61.829 14.3205C63.3492 14.1546 64.8865 14.3842 66.2919 14.9873C67.2972 14.8703 68.3133 14.8807 69.316 15.0183C70.7975 15.182 72.2218 15.683 73.4795 16.4829C74.7372 17.2828 75.7948 18.3604 76.5711 19.6328C77.79 21.6715 78.2623 24.0705 77.9071 26.4191L77.785 27.2884C77.5112 29.2391 76.5839 31.0393 75.1546 32.3948C73.7253 33.7503 71.8785 34.5809 69.916 34.7508L69.7463 35.9581C69.5678 37.1239 69.1496 38.2402 68.518 39.2363C67.8864 40.2324 67.0552 41.0868 66.0768 41.7455C64.9201 42.5596 63.5833 43.0813 62.1809 43.2658C60.7785 43.4504 59.3523 43.2923 58.0243 42.8051C58.0243 42.8051 54.9563 41.6846 54.3288 40.1929Z" fill="#F9FAFD"/>
<path d="M71.5185 44.898C70.3847 44.7599 69.2894 44.3994 68.2952 43.8372C67.3011 43.2749 66.4276 42.522 65.725 41.6216C65.0199 40.6918 64.5095 39.6294 64.2243 38.4978C63.9391 37.3663 63.885 36.1889 64.0653 35.0359L65.8457 23.4185C65.9718 22.7189 66.1834 22.0375 66.4756 21.3895C66.4058 20.5729 66.455 19.7504 66.6218 18.9479L66.7405 18.1028C67.1612 15.9064 68.3848 13.9454 70.1728 12.6021C72.0302 11.2963 74.3195 10.7565 76.5647 11.095C78.8099 11.4334 80.8383 12.6241 82.2282 14.4195C82.9336 15.3718 83.433 16.4605 83.6944 17.6164C83.9559 18.7723 83.9738 19.9699 83.7469 21.1331L83.6179 22.0506C83.5144 22.6338 83.3516 23.2049 83.1321 23.7551C83.2297 24.482 83.2256 25.2189 83.1199 25.9447L81.4394 37.5516C81.0932 39.8301 79.8624 41.8802 78.0141 43.2569C76.1657 44.6335 73.849 45.2257 71.5668 44.9048L71.5185 44.898ZM72.8475 30.361C73.3715 30.5208 73.9174 30.5976 74.4652 30.5883C73.9207 30.4465 73.3617 30.3679 72.7992 30.3542L72.8475 30.361Z" fill="#F9FAFD"/>
<path d="M78.473 45.8511C76.6294 45.6062 74.9152 44.769 73.5885 43.4657L72.7797 44.1399L72.9697 42.7878L72.7381 42.509C72.0689 41.5978 71.5864 40.5633 71.3182 39.4651C71.05 38.3668 71.0015 37.2264 71.1753 36.1093L73.5506 19.2079C73.6951 18.0131 74.0927 16.8628 74.7171 15.8339C75.3415 14.8049 76.1783 13.9211 77.1715 13.2413C78.9785 12.081 81.1417 11.6072 83.2683 11.9061C85.3949 12.2049 87.3438 13.2566 88.761 14.8701C89.6882 15.9159 90.3561 17.1653 90.7106 18.5173C92.0294 19.0063 93.2536 19.7198 94.329 20.6262C96.1475 22.1525 97.488 24.1701 98.1904 26.438C98.8655 28.7243 98.9903 31.1379 98.5546 33.4817C98.1766 37.2924 96.4085 40.8304 93.5877 43.4203C92.127 44.6763 90.4079 45.5957 88.5524 46.1136C86.6968 46.6314 84.7501 46.735 82.8501 46.417C82.1698 46.3252 81.499 46.1732 80.8456 45.9629C80.0534 46.0367 79.2548 45.9991 78.473 45.8511Z" fill="#F9FAFD"/>
<path d="M93.6859 47.9886C91.8423 47.7437 90.1281 46.9066 88.8014 45.6032L88.1826 44.9253L87.951 44.6466C87.2818 43.7353 86.7993 42.7009 86.5311 41.6026C86.2629 40.5044 86.2143 39.364 86.3882 38.2469L88.7635 21.3455C88.9079 20.1506 89.3056 19.0003 89.93 17.9714C90.5544 16.9425 91.3912 16.0586 92.3843 15.3788C94.1965 14.206 96.3707 13.7258 98.5083 14.0262C100.646 14.3266 102.603 15.3875 104.022 17.0144C104.949 18.0602 105.617 19.3097 105.972 20.6616C107.291 21.1506 108.515 21.8641 109.59 22.7706C111.409 24.2968 112.749 26.3145 113.452 28.5823C114.092 30.872 114.184 33.2807 113.719 35.6125C113.341 39.4232 111.573 42.9612 108.752 45.551C107.292 46.807 105.573 47.7265 103.717 48.2443C101.861 48.7622 99.9147 48.8658 98.0147 48.5477C97.3344 48.456 96.6636 48.304 96.0102 48.0937C95.2343 48.1652 94.4522 48.1299 93.6859 47.9886Z" fill="#F9FAFD"/>
<path d="M108.939 50.1576C106.742 49.825 104.756 48.6649 103.387 46.9152C102.645 45.9976 102.1 44.9375 101.786 43.8005C101.471 42.6635 101.393 41.474 101.558 40.3058L103.933 23.4044C104.073 22.2785 104.433 21.1913 104.994 20.2054C105.556 19.2194 106.306 18.3541 107.203 17.6592C109.059 16.3696 111.333 15.8279 113.571 16.1424C115.81 16.457 117.847 17.6046 119.275 19.3559C119.994 20.2689 120.521 21.3176 120.824 22.4391C121.128 23.5606 121.202 24.7319 121.042 25.8827L118.666 42.7841C118.499 43.9741 118.081 45.1152 117.442 46.1328C116.802 47.1504 115.955 48.0214 114.956 48.6888C113.192 49.8852 111.056 50.4065 108.939 50.1576Z" fill="#F9FAFD"/>
<path d="M120.649 51.803C118.121 51.4886 115.713 50.5405 113.649 49.0466C112.971 48.5328 112.334 47.9658 111.746 47.351L108.986 48.4158L109.57 44.2629C109.346 43.8395 109.153 43.401 108.991 42.9505C108.034 40.503 107.745 37.8452 108.153 35.2492C108.476 32.925 109.344 30.7101 110.686 28.785C111.719 27.2182 113.061 25.8792 114.631 24.8507C116.201 23.8221 117.964 23.1257 119.813 22.8043C121.662 22.4829 123.557 22.5434 125.382 22.9819C127.206 23.4204 128.922 24.2277 130.423 25.3541C132.051 26.5707 133.349 28.1751 134.199 30.0212C135.113 31.863 135.464 33.9335 135.209 35.9739C135.108 36.7345 134.896 37.4762 134.579 38.1753L134.559 38.3201L134.414 38.2998C134.284 38.5943 134.128 38.8772 133.95 39.1456C134.418 40.4488 134.56 41.8465 134.363 43.217C134.11 45.2814 133.126 47.187 131.589 48.5886C130.098 49.8377 128.367 50.7676 126.502 51.3208C124.608 51.896 122.612 52.0604 120.649 51.803Z" fill="#F9FAFD"/>
<path d="M131.626 53.3962C129.339 53.107 127.258 51.9302 125.832 50.1198C125.16 49.1962 124.677 48.1491 124.411 47.0385C124.144 45.9279 124.1 44.7756 124.279 43.6477L126.651 26.7705C126.966 24.4872 128.168 22.42 129.997 21.0176C131.825 19.6151 134.134 18.9906 136.42 19.2796L147.986 20.905C149.125 21.0651 150.221 21.4488 151.212 22.034C152.202 22.6192 153.067 23.3945 153.757 24.3152C154.446 25.2358 154.947 26.2838 155.231 27.3987C155.514 28.5137 155.574 29.6736 155.408 30.8119C155.085 33.0346 153.921 35.0483 152.155 36.4364L151.907 36.6231C151.931 37.2116 151.906 37.801 151.832 38.3853C151.537 40.6399 150.365 42.6871 148.569 44.0822C147.653 44.8109 146.596 45.3432 145.465 45.646C144.334 45.9487 143.152 46.0154 141.994 45.8419L141.56 45.7808L141.539 45.9257C141.215 48.231 139.989 50.3132 138.13 51.7142C136.27 53.1152 133.931 53.7202 131.626 53.3962Z" fill="#F9FAFD"/>
<path d="M148.291 55.6873C147.157 55.5492 146.062 55.1887 145.068 54.6264C144.073 54.0642 143.2 53.3113 142.497 52.4109C141.146 50.5523 140.586 48.2335 140.941 45.9629L142.722 34.3454C142.824 33.6456 143.011 32.9608 143.279 32.3063C143.209 31.4897 143.259 30.6672 143.425 29.8647L143.561 28.8989C143.85 27.213 144.629 25.6494 145.8 24.4035C146.972 23.1575 148.485 22.2845 150.15 21.8934C151.816 21.5022 153.559 21.6103 155.163 22.2042C156.767 22.7981 158.161 23.8514 159.17 25.2325C159.88 26.1819 160.383 27.2706 160.645 28.4274C160.906 29.5842 160.921 30.7832 160.688 31.9461L160.559 32.8636C160.456 33.4468 160.293 34.0179 160.073 34.5681C160.171 35.295 160.167 36.032 160.061 36.7577L158.284 48.351C157.938 50.6296 156.707 52.6797 154.859 54.0563C153.01 55.433 150.694 56.0251 148.412 55.7042L148.291 55.6873ZM149.572 41.1435C150.104 41.3046 150.657 41.3825 151.213 41.3742C150.676 41.2371 150.126 41.1597 149.572 41.1435Z" fill="#F9FAFD"/>
<path d="M149.815 53.6119C149.022 52.6965 148.432 51.6226 148.086 50.4616C147.74 49.3007 147.644 48.0793 147.807 46.8788L149.456 35.1444C149.613 33.9883 150.004 32.8765 150.606 31.8771C151.208 30.8778 152.008 30.0121 152.956 29.3332C154.194 28.4404 155.641 27.8836 157.158 27.717C158.674 27.5504 160.208 27.7797 161.609 28.3825C162.615 28.2688 163.63 28.2793 164.633 28.4136C166.119 28.574 167.549 29.0739 168.811 29.8746C170.073 30.6753 171.134 31.7554 171.913 33.0314C173.196 35.0554 173.728 37.4653 173.418 39.8415L173.295 40.7108C173.034 42.6668 172.111 44.4743 170.679 45.8322C169.247 47.19 167.394 48.0163 165.426 48.1732L165.257 49.3805C165.091 50.5454 164.683 51.6627 164.059 52.6606C163.435 53.6585 162.61 54.5148 161.636 55.1747C160.483 55.9873 159.15 56.5085 157.752 56.6936C156.354 56.8787 154.932 56.7223 153.607 56.2377C152.174 55.6371 150.882 54.7426 149.815 53.6119Z" fill="#F9FAFD"/>
<path d="M169.757 58.7046C167.419 58.4128 165.207 57.4798 163.365 56.0089C161.845 54.8147 160.612 53.2952 159.755 51.562C158.793 49.7565 158.403 47.7007 158.639 45.6682C158.833 44.2412 159.388 42.8871 160.25 41.7336C160.181 40.9162 160.206 40.0936 160.324 39.2818C160.542 37.6536 161.13 36.0971 162.043 34.7316C162.957 33.3661 164.171 32.228 165.592 31.4046C168.228 29.9251 171.293 29.3993 174.271 29.916C177.148 30.1991 179.845 31.4457 181.924 33.4537C183.064 34.6191 183.916 36.0348 184.411 37.5878C184.907 39.1409 185.033 40.7883 184.779 42.3986C184.634 43.4665 184.314 44.5031 183.83 45.4662C183.997 46.5516 183.999 47.6558 183.838 48.7419C183.528 50.8817 182.614 52.8887 181.203 54.527C179.855 56.1391 178.102 57.3631 176.125 58.0729C174.089 58.8129 171.899 59.0301 169.757 58.7046ZM161.399 48.0998C161.399 48.0998 161.375 48.2688 161.362 48.3654C161.348 48.462 161.458 48.2066 161.447 48.1066L161.399 48.0998Z" fill="#F9FAFD"/>
<path d="M180.399 60.2499C178.158 59.9375 176.125 58.7693 174.726 56.9904C174.006 56.0735 173.479 55.0206 173.176 53.8949C172.873 52.7692 172.801 51.5939 172.963 50.4395L173.621 45.7554C173.215 45.37 172.846 44.9472 172.519 44.4924C171.192 42.6679 170.628 40.3985 170.946 38.1652C171.102 36.9533 171.516 35.7889 172.159 34.7498C172.802 33.7107 173.659 32.8208 174.673 32.1397C175.145 31.8286 175.644 31.5608 176.165 31.3397C176.722 30.2615 177.501 29.3137 178.451 28.5588C179.376 27.8121 180.445 27.2633 181.59 26.9465C182.736 26.6297 183.935 26.5516 185.112 26.717C186.289 26.8824 187.419 27.2879 188.433 27.9082C189.448 28.5286 190.323 29.3506 191.007 30.3233C191.674 31.2729 192.151 32.3435 192.41 33.4752C193.036 33.961 193.593 34.528 194.069 35.161C195.423 36.9947 196.004 39.2865 195.687 41.5439C195.37 43.8013 194.18 45.8441 192.372 47.2334C191.894 47.6272 191.368 47.9587 190.806 48.2197L190.168 52.759C189.86 55.045 188.659 57.1161 186.829 58.5197C184.998 59.9234 182.687 60.5454 180.399 60.2499Z" fill="#F9FAFD"/>
<path d="M11.7054 28.6619C11.49 28.3942 11.3878 28.0529 11.4205 27.7108C11.4741 27.4671 11.5569 27.2307 11.6672 27.0069L13.1458 23.6691L10.9728 23.3637C10.7869 23.345 10.6073 23.2861 10.4463 23.1912C10.2854 23.0963 10.1469 22.9677 10.0405 22.8141C9.93096 22.6704 9.85219 22.5057 9.80908 22.3302C9.76596 22.1547 9.75944 21.9722 9.78992 21.794C9.84226 21.4227 10.04 21.0874 10.3395 20.8618C10.4871 20.7488 10.6559 20.6666 10.8358 20.62C11.0158 20.5734 11.2032 20.5633 11.3871 20.5905L14.3569 21.0078L15.6469 18.136L12.991 17.7628C12.8076 17.7429 12.6302 17.6861 12.4694 17.5958C12.3086 17.5055 12.1677 17.3836 12.0554 17.2373C11.8296 16.9379 11.732 16.5611 11.784 16.1897C11.81 16.0096 11.8716 15.8364 11.9654 15.6805C12.0592 15.5245 12.1833 15.3889 12.3302 15.2816C12.4741 15.16 12.6423 15.0708 12.8237 15.0198C13.005 14.9688 13.1951 14.9573 13.3812 14.9861L16.8822 15.4781L18.6554 11.2708C18.7663 10.9895 18.9839 10.7634 19.2608 10.6419C19.5275 10.4843 19.8405 10.4239 20.1466 10.4709C20.3459 10.4803 20.5404 10.5357 20.7147 10.6329C20.889 10.73 21.0384 10.8661 21.1513 11.0307C21.2655 11.1729 21.3489 11.3374 21.3962 11.5136C21.4435 11.6897 21.4536 11.8738 21.426 12.0542C21.4207 12.2661 21.3911 12.4767 21.3378 12.6819L19.7796 15.8853L22.4114 16.2552L24.3053 12.0649C24.4162 11.7835 24.6338 11.5575 24.9107 11.4359C25.1709 11.2844 25.4738 11.2231 25.7724 11.2615C25.9638 11.2822 26.1483 11.3446 26.3129 11.4443C26.4776 11.5441 26.6184 11.6787 26.7254 11.8387C26.9345 12.135 27.024 12.4993 26.976 12.8588C26.9801 13.055 26.9526 13.2507 26.8945 13.4382L25.2846 16.659L27.0955 16.9135C27.2774 16.9414 27.4515 17.0065 27.6072 17.1046C27.7628 17.2027 27.8966 17.3318 28.0002 17.4839C28.1119 17.6276 28.1937 17.7921 28.2409 17.9679C28.2881 18.1436 28.2997 18.3271 28.2749 18.5073C28.2226 18.8787 28.0249 19.214 27.7254 19.4396C27.4312 19.6534 27.065 19.7433 26.7053 19.6902L24.1218 19.3271L22.8559 22.2023L25.1014 22.5179C25.4728 22.5701 25.8083 22.7677 26.034 23.0672C26.2597 23.3667 26.3572 23.7437 26.305 24.1151C26.2818 24.296 26.2213 24.4702 26.1273 24.6265C26.0333 24.7828 25.9078 24.9179 25.7588 25.0232C25.6142 25.1415 25.4456 25.227 25.2648 25.2738C25.0839 25.3207 24.895 25.3277 24.7112 25.2945L21.6689 24.867L19.6996 29.2437C19.576 29.5309 19.3505 29.7623 19.0666 29.8934C18.8102 30.0229 18.5195 30.0682 18.2359 30.0229C18.04 30.0052 17.8506 29.9439 17.6815 29.8435C17.5124 29.743 17.3679 29.606 17.2588 29.4424C17.0539 29.1441 16.9649 28.7815 17.0082 28.4223C17.0471 28.185 17.121 27.9547 17.2273 27.739L18.7266 24.4288L16.0949 24.059L14.1497 28.4391C14.0065 28.7127 13.7865 28.9385 13.5167 29.0888C13.2418 29.2139 12.9364 29.2565 12.6377 29.2115C12.4531 29.1882 12.2751 29.1275 12.1148 29.033C11.9545 28.9385 11.8152 28.8122 11.7054 28.6619ZM20.0619 21.7604L21.2244 18.9199L18.5443 18.5432L17.2302 21.4116L20.0619 21.7604Z" fill="#0D0E0D"/>
<path d="M31.6177 30.7958C30.5889 30.014 29.8139 28.9458 29.3901 27.7251C29.267 27.3449 29.2146 26.9453 29.2357 26.5462C29.2595 26.3557 29.3232 26.1724 29.4226 26.0082C29.5221 25.844 29.655 25.7026 29.8128 25.5932C29.9675 25.4742 30.1445 25.3873 30.3333 25.3377C30.5221 25.2882 30.7189 25.2769 30.9121 25.3045C31.2425 25.3438 31.5507 25.491 31.7889 25.7232C32.016 25.9629 32.1626 26.2676 32.2081 26.5946C32.4078 27.465 32.9231 28.2305 33.6543 28.743C34.4171 29.2999 35.3046 29.6613 36.2394 29.7957C37.2917 29.9884 38.3782 29.8296 39.3314 29.3439C39.7216 29.1756 40.0611 28.9083 40.3162 28.5684C40.5712 28.2285 40.733 27.8279 40.7856 27.4062C40.818 27.0619 40.7721 26.7148 40.6513 26.3909C40.5305 26.0669 40.338 25.7744 40.0882 25.5354C39.2173 24.7314 38.2044 24.0965 37.1013 23.6629C35.4963 23.0384 34.0297 22.1044 32.7849 20.9142C32.289 20.4305 31.9206 19.8315 31.7128 19.1707C31.5049 18.5099 31.4639 17.8079 31.5935 17.1274C31.7231 16.1551 32.1428 15.2444 32.7979 14.5144C33.5257 13.7618 34.4545 13.2342 35.4737 12.9946C36.663 12.683 37.9041 12.6227 39.118 12.8173C40.765 12.9573 42.3319 13.5893 43.6151 14.6312C44.0757 15.0399 44.4257 15.5583 44.6325 16.1383C44.8394 16.7183 44.8965 17.3412 44.7984 17.9491C44.7516 18.3522 44.5496 18.7213 44.2353 18.9779C44.0883 19.1022 43.9159 19.1928 43.7301 19.2433C43.5443 19.2938 43.3498 19.3029 43.1601 19.27C42.9941 19.2496 42.8339 19.1958 42.6892 19.112C42.5444 19.0282 42.418 18.9161 42.3176 18.7823C42.2027 18.6582 42.1154 18.5111 42.0615 18.3507C42.0076 18.1903 41.9884 18.0203 42.0052 17.852C41.9893 17.55 41.8988 17.2567 41.7417 16.9983C41.5847 16.7399 41.366 16.5245 41.1053 16.3713C40.4134 15.8827 39.6102 15.5751 38.7689 15.4767C37.7543 15.2676 36.7012 15.3501 35.7316 15.7146C35.3952 15.841 35.0992 16.0556 34.8745 16.336C34.6499 16.6164 34.5049 16.9521 34.4549 17.3079C34.4049 17.6637 34.4517 18.0264 34.5904 18.3579C34.729 18.6893 34.9545 18.9773 35.2429 19.1914C36.2238 19.9531 37.3041 20.5771 38.4539 21.0462C40.0306 21.6849 41.4409 22.6746 42.5776 23.9401C43.0011 24.4508 43.31 25.0464 43.4833 25.6867C43.6567 26.327 43.6905 26.997 43.5826 27.6515C43.4402 28.717 42.9645 29.7102 42.2235 30.489C41.4225 31.2862 40.4444 31.8827 39.369 32.2299C38.2089 32.5804 36.9855 32.6692 35.7869 32.4898C34.2691 32.3142 32.8278 31.7287 31.6177 30.7958Z" fill="#0D0E0D"/>
<path d="M48.1449 33.3899C47.2562 32.6727 46.5804 31.7264 46.1905 30.653C45.7671 29.6058 45.63 28.4648 45.7933 27.3471C46.0091 26.0769 46.4982 24.8688 47.2266 23.8061C47.9668 22.702 48.9376 21.7716 50.0721 21.079C51.072 20.4554 52.2564 20.1957 53.4255 20.3438C54.2584 20.4318 55.0612 20.7045 55.7755 21.1419C56.4149 21.6365 56.9635 22.2384 57.3967 22.9209C57.6297 23.2279 57.7344 23.6134 57.6888 23.9961C57.6673 24.1738 57.6076 24.3448 57.514 24.4974C57.4203 24.6499 57.2948 24.7805 57.146 24.8801C56.8373 25.0711 56.4662 25.1338 56.1119 25.0548C55.9151 25.0715 55.7171 25.0436 55.5324 24.9734C55.3563 24.8227 55.2067 24.6435 55.0899 24.4434C54.8591 24.0752 54.5735 23.7445 54.2429 23.4626C53.8811 23.1947 53.4523 23.0321 53.0039 22.993C52.3236 22.9404 51.6459 23.1234 51.0844 23.5111C50.3723 23.9934 49.7718 24.6226 49.3232 25.3564C48.8473 26.1192 48.5346 26.9723 48.4048 27.8619C48.2894 28.5689 48.366 29.294 48.6268 29.9613C48.8704 30.5427 49.2556 31.0539 49.7473 31.4484C50.2341 31.8067 50.8021 32.0388 51.4005 32.1239C52.06 32.2416 52.7388 32.1842 53.3691 31.9574C53.9188 31.7216 54.4179 31.3821 54.8392 30.9575C55.0072 30.7669 55.2174 30.6181 55.453 30.523C55.6887 30.4279 55.9432 30.3891 56.1965 30.4096C56.5569 30.4577 56.8842 30.6451 57.108 30.9317C57.2148 31.0629 57.2932 31.2149 57.3381 31.3781C57.383 31.5412 57.3934 31.7119 57.3688 31.8793C57.3295 32.2369 57.1697 32.5704 56.9158 32.8251C56.1861 33.532 55.3121 34.0727 54.3539 34.4102C53.319 34.8066 52.1993 34.9291 51.1031 34.7659C50.0139 34.5731 48.994 34.0988 48.1449 33.3899Z" fill="#0D0E0D"/>
<path d="M59.9211 35.4382C59.8035 35.3014 59.7159 35.1416 59.6638 34.9689C59.6118 34.7962 59.5965 34.6145 59.6188 34.4355L61.2612 22.7494C61.2902 22.5659 61.3551 22.39 61.4521 22.2316C61.5491 22.0732 61.6763 21.9354 61.8266 21.8262C61.9768 21.717 62.1471 21.6385 62.3277 21.5951C62.5083 21.5517 62.6957 21.5443 62.8792 21.5734C63.2555 21.6186 63.5996 21.8082 63.839 22.1022C64.0647 22.4016 64.1623 22.7784 64.1103 23.1498L63.9881 24.019C64.4512 23.3474 65.0913 22.8173 65.8374 22.4875C66.5835 22.1577 67.4065 22.0412 68.2148 22.1509C68.616 22.1577 69.0093 22.2635 69.3598 22.4588C69.7103 22.6541 70.0072 22.9329 70.2242 23.2704C70.5857 23.8788 70.7205 24.5955 70.6046 25.2936L70.4825 26.1628C70.4656 26.3432 70.4103 26.518 70.3203 26.6752C70.2302 26.8324 70.1075 26.9685 69.9604 27.0743C69.8182 27.1885 69.6537 27.2719 69.4775 27.3192C69.3013 27.3665 69.1173 27.3767 68.9369 27.3491C68.7416 27.3382 68.5515 27.2824 68.3814 27.1859C68.2113 27.0893 68.0658 26.9548 67.9564 26.7927C67.7715 26.4805 67.7012 26.1137 67.7575 25.7552L67.7982 25.4655C67.8389 25.1758 67.6454 24.9762 67.2349 24.9185C66.7791 24.8909 66.3273 25.0184 65.953 25.28C65.4884 25.5263 65.0627 25.8398 64.6897 26.2105C64.2514 26.5984 63.906 27.08 63.6791 27.6196C63.4622 28.1866 63.3131 28.7772 63.2348 29.3792L62.4611 34.8842C62.4216 35.2154 62.2555 35.5185 61.9976 35.7301C61.7034 35.9438 61.3372 36.0338 60.9775 35.9806C60.7729 35.9706 60.5729 35.9171 60.3907 35.8235C60.2085 35.73 60.0484 35.5986 59.9211 35.4382Z" fill="#0D0E0D"/>
<path d="M71.6544 37.0871C71.4287 36.7877 71.3311 36.4108 71.3831 36.0395L73.15 24.5186C73.1624 24.1697 73.3057 23.8382 73.5513 23.5901C73.7014 23.4712 73.8741 23.3839 74.0589 23.3337C74.2437 23.2835 74.4368 23.2714 74.6265 23.298C74.817 23.3218 75.0003 23.3855 75.1645 23.485C75.3287 23.5844 75.4701 23.7174 75.5795 23.8752C75.6925 24.0228 75.7747 24.1915 75.8213 24.3715C75.8679 24.5514 75.8779 24.7389 75.8508 24.9228L74.2047 36.4606C74.1795 36.647 74.1154 36.8261 74.0166 36.9861C73.9178 37.1461 73.7863 37.2835 73.6309 37.3895C73.4863 37.5077 73.3177 37.5932 73.1369 37.6401C72.956 37.6869 72.7672 37.694 72.5833 37.6608C72.3978 37.6328 72.2198 37.5676 72.0602 37.469C71.9005 37.3704 71.7625 37.2405 71.6544 37.0871ZM74.0533 21.4201C73.9364 21.2746 73.8518 21.106 73.805 20.9254C73.7582 20.7448 73.7503 20.5563 73.7819 20.3725L73.9312 19.3101C73.9592 19.1282 74.0242 18.954 74.1223 18.7984C74.2204 18.6428 74.3495 18.509 74.5016 18.4054C74.642 18.2916 74.8043 18.208 74.9784 18.1597C75.1525 18.1114 75.3347 18.0995 75.5136 18.1246C75.6925 18.1498 75.8644 18.2115 76.0184 18.3059C76.1724 18.4003 76.3054 18.5254 76.409 18.6734C76.5219 18.8118 76.6049 18.972 76.6528 19.144C76.7006 19.316 76.7123 19.496 76.6871 19.6728L76.531 20.7834C76.5079 20.9644 76.4474 21.1385 76.3533 21.2949C76.2593 21.4512 76.1338 21.5863 75.9849 21.6915C75.8409 21.8023 75.6763 21.8833 75.5007 21.9297C75.325 21.9761 75.1419 21.9869 74.962 21.9616C74.7821 21.9364 74.6091 21.8754 74.4531 21.7824C74.297 21.6895 74.1611 21.5663 74.0533 21.4201Z" fill="#0D0E0D"/>
<path d="M78.5841 38.0609C78.3823 37.7721 78.3 37.4165 78.3543 37.0683L80.7296 20.167C80.7462 19.9902 80.8013 19.8192 80.8908 19.666C80.9804 19.5127 81.1024 19.3808 81.2483 19.2796C81.5558 19.0794 81.9265 19 82.2891 19.0566C82.6448 19.1047 82.9704 19.2819 83.204 19.5545C83.3196 19.6912 83.4042 19.8513 83.4522 20.0238C83.5002 20.1962 83.5104 20.377 83.4821 20.5538L82.6711 26.3244C83.2547 25.8184 83.9462 25.4524 84.6927 25.2543C85.4476 25.0777 86.2291 25.0455 86.9959 25.1595C87.9283 25.2809 88.8057 25.6692 89.5225 26.2778C90.28 26.9207 90.8362 27.7682 91.1245 28.7189C91.4731 29.9362 91.5374 31.2172 91.3124 32.4632C91.1361 34.4776 90.2422 36.3616 88.7935 37.7722C88.1207 38.3446 87.3281 38.7586 86.474 38.9837C85.6199 39.2089 84.7261 39.2394 83.8586 39.073C83.2794 38.9805 82.7153 38.8101 82.1817 38.5665C81.6955 38.3624 81.2446 38.083 80.8454 37.7385L80.8216 37.9075C80.7915 38.023 80.7361 38.1304 80.6593 38.2218C80.5826 38.3132 80.4865 38.3864 80.378 38.4361C80.1034 38.5962 79.7816 38.6554 79.4681 38.6037C79.1144 38.5436 78.7977 38.3491 78.5841 38.0609ZM87.1778 35.4277C87.9731 34.4789 88.4633 33.3119 88.584 32.0798C88.7951 31.1285 88.6837 30.134 88.2672 29.253C88.0997 28.9214 87.8516 28.6372 87.5457 28.4264C87.2397 28.2157 86.8858 28.0851 86.5163 28.0467C85.8196 27.9474 85.1101 27.9901 84.4304 28.1721C83.8288 28.3373 83.2775 28.649 82.8256 29.0792C82.419 29.4618 82.156 29.9724 82.0807 30.5256L81.3884 35.4512C82.2224 35.9071 83.128 36.2176 84.0663 36.3692C84.6173 36.4905 85.1898 36.4723 85.732 36.3163C86.2741 36.1604 86.7688 35.8715 87.171 35.476L87.1778 35.4277Z" fill="#0D0E0D"/>
<path d="M93.7937 40.1984C93.5849 39.9111 93.494 39.5547 93.5397 39.2025L95.9151 22.3011C95.9366 22.1234 95.9962 21.9524 96.0899 21.7998C96.1836 21.6472 96.3091 21.5167 96.4579 21.4171C96.7654 21.2169 97.1361 21.1375 97.4987 21.1941C97.8545 21.2422 98.1801 21.4194 98.4136 21.692C98.5292 21.8287 98.6139 21.9888 98.6619 22.1613C98.7099 22.3337 98.7201 22.5146 98.6917 22.6913L97.8807 28.4619C98.4643 27.956 99.1558 27.59 99.9024 27.3919C100.657 27.2152 101.439 27.183 102.206 27.297C103.138 27.4184 104.015 27.8068 104.732 28.4154C105.493 29.0488 106.044 29.8991 106.31 30.8531C106.663 32.0691 106.719 33.3518 106.474 34.594C106.324 36.6422 105.432 38.5653 103.965 40.0029C103.293 40.5753 102.5 40.9893 101.646 41.2144C100.792 41.4396 99.898 41.4701 99.0306 41.3037C98.4513 41.2112 97.8872 41.0408 97.3536 40.7972C96.8675 40.5931 96.4165 40.3137 96.0173 39.9692L95.9935 40.1383C95.9634 40.2538 95.908 40.3611 95.8313 40.4525C95.7545 40.5439 95.6584 40.6171 95.5499 40.6668C95.2753 40.8269 94.9535 40.8862 94.64 40.8344C94.285 40.7424 93.9809 40.5138 93.7937 40.1984ZM102.387 37.5652C103.173 36.6102 103.661 35.4465 103.794 34.2173C104.005 33.266 103.893 32.2715 103.477 31.3905C103.309 31.0589 103.061 30.7747 102.755 30.564C102.449 30.3532 102.095 30.2226 101.726 30.1842C101.029 30.0849 100.32 30.1276 99.64 30.3096C99.0384 30.4749 98.4871 30.7865 98.0353 31.2167C97.6287 31.5993 97.3657 32.1099 97.2903 32.6631L96.5981 37.5887C97.4372 38.0286 98.345 38.3227 99.2827 38.4584C99.8287 38.5847 100.397 38.5736 100.938 38.4262C101.479 38.2787 101.974 37.9995 102.381 37.6135L102.387 37.5652Z" fill="#0D0E0D"/>
<path d="M109.053 42.3435C108.936 42.2125 108.85 42.0569 108.801 41.888C108.752 41.7192 108.742 41.5416 108.771 41.3683L111.147 24.467C111.167 24.2873 111.223 24.1137 111.313 23.9569C111.403 23.8001 111.524 23.6634 111.669 23.5555C111.816 23.4432 111.985 23.3632 112.165 23.3206C112.345 23.2781 112.531 23.2738 112.713 23.3083C112.893 23.3342 113.066 23.3959 113.222 23.4897C113.378 23.5835 113.514 23.7075 113.621 23.8545C113.741 23.9896 113.831 24.1493 113.883 24.3225C113.935 24.4956 113.949 24.6781 113.923 24.8572L111.548 41.7586C111.524 41.9342 111.46 42.1022 111.363 42.2503C111.265 42.3984 111.136 42.523 110.985 42.615C110.689 42.8264 110.324 42.9161 109.964 42.8656C109.605 42.815 109.278 42.6281 109.053 42.3435Z" fill="#0D0E0D"/>
<path d="M118.097 43.1715C117.097 42.4414 116.331 41.4353 115.894 40.2766C115.408 39.0039 115.27 37.6246 115.495 36.2811C115.672 35.0761 116.12 33.9269 116.805 32.9196C117.512 31.9066 118.475 31.099 119.596 30.5788C120.637 30.108 121.782 29.9151 122.919 30.0189C124.057 30.1227 125.148 30.5196 126.087 31.171C126.788 31.6768 127.353 32.3484 127.732 33.1258C128.044 33.6918 128.184 34.3358 128.137 34.98C128.105 35.2428 127.984 35.4868 127.793 35.6704C127.59 35.9026 127.337 36.0858 127.053 36.2065L118.558 39.543C118.762 40.2062 119.198 40.774 119.785 41.1436C120.491 41.6002 121.296 41.882 122.132 41.9658C122.669 42.0477 123.218 42.0164 123.743 41.8739C124.267 41.7314 124.756 41.4808 125.178 41.1382C125.314 41.0172 125.474 40.9257 125.647 40.8695C125.82 40.8133 126.003 40.7937 126.184 40.8118C126.362 40.8296 126.535 40.8828 126.692 40.9683C126.849 41.0538 126.988 41.1699 127.099 41.3097C127.213 41.4473 127.297 41.6074 127.345 41.7796C127.393 41.9519 127.404 42.1323 127.377 42.309C127.319 42.631 127.147 42.9214 126.893 43.1274C126.188 43.6775 125.387 44.091 124.53 44.3465C123.636 44.623 122.693 44.7004 121.765 44.5734C120.443 44.4266 119.18 43.9439 118.097 43.1715ZM124.426 33.1781C123.983 32.9072 123.486 32.7365 122.969 32.678C122.457 32.59 121.933 32.6086 121.428 32.7325C120.923 32.8565 120.45 33.0832 120.037 33.3984C119.192 34.0518 118.601 34.9782 118.363 36.0194C118.287 36.3609 118.238 36.7081 118.218 37.0576L125.359 34.2449C125.152 33.785 124.798 33.4064 124.353 33.1679L124.426 33.1781Z" fill="#0D0E0D"/>
<path d="M131.674 45.5217C131.56 45.3695 131.479 45.1965 131.433 45.0126C131.387 44.8286 131.377 44.6374 131.406 44.4499L133.75 27.7658C133.772 27.5771 133.833 27.3948 133.928 27.2303C134.023 27.0658 134.151 26.9226 134.303 26.8094C134.457 26.6879 134.633 26.5995 134.823 26.5498C135.012 26.5001 135.209 26.4902 135.403 26.5208L146.968 28.1462C147.159 28.17 147.342 28.2337 147.506 28.3331C147.67 28.4325 147.812 28.5655 147.921 28.7233C148.037 28.8741 148.12 29.0471 148.166 29.2314C148.212 29.4158 148.22 29.6076 148.189 29.7951C148.134 30.173 147.936 30.5155 147.636 30.7515C147.487 30.873 147.315 30.9618 147.13 31.0122C146.944 31.0625 146.751 31.0732 146.561 31.0435L136.444 29.6217L135.742 34.6197L143.444 35.7022C143.635 35.7229 143.82 35.7853 143.984 35.885C144.149 35.9847 144.29 36.1193 144.397 36.2793C144.626 36.5958 144.721 36.9894 144.661 37.3752C144.637 37.5595 144.576 37.7369 144.481 37.8971C144.387 38.0572 144.261 38.1967 144.112 38.3075C143.965 38.4318 143.792 38.5224 143.607 38.5729C143.421 38.6233 143.226 38.6324 143.037 38.5996L135.335 37.5171L134.296 44.9054C134.272 45.0959 134.209 45.2792 134.109 45.4435C134.01 45.6077 133.877 45.7491 133.719 45.8584C133.572 45.9827 133.4 46.0733 133.214 46.1238C133.028 46.1743 132.834 46.1834 132.644 46.1505C132.447 46.12 132.259 46.0482 132.091 45.9398C131.924 45.8314 131.782 45.689 131.674 45.5217Z" fill="#0D0E0D"/>
<path d="M148.36 47.8674C148.134 47.5679 148.036 47.1911 148.088 46.8197L149.855 35.2989C149.88 35.1146 149.941 34.9372 150.035 34.777C150.13 34.6169 150.255 34.4773 150.405 34.3666C150.555 34.2476 150.727 34.1604 150.912 34.1102C151.097 34.06 151.29 34.0479 151.48 34.0745C151.671 34.0952 151.856 34.1576 152.02 34.2573C152.185 34.357 152.326 34.4916 152.433 34.6516C152.546 34.7992 152.628 34.968 152.675 35.148C152.721 35.3279 152.731 35.5154 152.704 35.6993L150.937 47.2201C150.912 47.4065 150.848 47.5856 150.749 47.7456C150.65 47.9056 150.519 48.0431 150.364 48.149C150.219 48.2673 150.05 48.3528 149.869 48.3996C149.689 48.4465 149.5 48.4535 149.316 48.4203C149.127 48.3984 148.945 48.3381 148.78 48.243C148.616 48.1478 148.473 48.02 148.36 47.8674ZM150.758 32.2004C150.641 32.0549 150.557 31.8863 150.51 31.7057C150.463 31.5251 150.455 31.3366 150.487 31.1527L150.636 30.0904C150.664 29.9085 150.729 29.7343 150.827 29.5787C150.926 29.423 151.055 29.2892 151.207 29.1856C151.347 29.0719 151.509 28.9883 151.683 28.94C151.858 28.8917 152.04 28.8797 152.219 28.9049C152.398 28.93 152.569 28.9917 152.723 29.0862C152.878 29.1806 153.01 29.3057 153.114 29.4537C153.227 29.592 153.31 29.7523 153.358 29.9242C153.406 30.0962 153.417 30.2763 153.392 30.453L153.236 31.5637C153.213 31.7447 153.152 31.9188 153.058 32.0751C152.964 32.2315 152.839 32.3665 152.69 32.4718C152.546 32.5826 152.381 32.6636 152.206 32.7099C152.03 32.7563 151.847 32.7672 151.667 32.7419C151.487 32.7166 151.314 32.6557 151.158 32.5627C151.002 32.4697 150.866 32.3465 150.758 32.2004Z" fill="#0D0E0D"/>
<path d="M155.431 48.8617C155.314 48.7249 155.226 48.565 155.174 48.3923C155.122 48.2196 155.107 48.0379 155.129 47.8589L156.772 36.1728C156.792 35.9874 156.851 35.8083 156.946 35.6476C157.041 35.4869 157.169 35.3482 157.321 35.2406C157.47 35.1322 157.639 35.0546 157.818 35.0121C157.998 34.9697 158.184 34.9633 158.365 34.9934C158.742 35.0387 159.086 35.2283 159.325 35.5222C159.551 35.8216 159.649 36.1985 159.597 36.5698L159.474 37.4391C159.937 36.7675 160.578 36.2373 161.324 35.9075C162.07 35.5778 162.893 35.4612 163.701 35.5709C164.102 35.5778 164.496 35.6835 164.846 35.8788C165.197 36.0741 165.493 36.3529 165.71 36.6904C166.072 37.2988 166.207 38.0155 166.091 38.7137L165.969 39.5829C165.952 39.7633 165.897 39.938 165.806 40.0952C165.716 40.2525 165.594 40.3886 165.447 40.4944C165.304 40.6086 165.14 40.692 164.964 40.7392C164.788 40.7865 164.603 40.7967 164.423 40.7691C164.247 40.7596 164.075 40.7149 163.917 40.6377C163.758 40.5605 163.617 40.4523 163.501 40.3195C163.317 40.0073 163.246 39.6405 163.303 39.282L163.357 38.8957C163.398 38.606 163.228 38.4098 162.794 38.3487C162.338 38.3249 161.888 38.452 161.512 38.7103C161.047 38.9565 160.621 39.27 160.248 39.6407C159.81 40.0286 159.465 40.5102 159.238 41.0498C159.021 41.6168 158.872 42.2074 158.793 42.8094L158.02 48.3144C157.971 48.4908 157.884 48.6547 157.767 48.7953C157.65 48.9358 157.504 49.0498 157.339 49.1297C157.044 49.3411 156.678 49.4309 156.319 49.3803C155.959 49.3298 155.633 49.1429 155.407 48.8583L155.431 48.8617Z" fill="#0D0E0D"/>
<path d="M167.957 50.3268C167.273 49.7937 166.712 49.1185 166.314 48.3479C166.022 47.8439 165.873 47.2695 165.883 46.6868C165.908 46.5026 165.969 46.3252 166.063 46.165C166.158 46.0049 166.283 45.8653 166.433 45.7546C166.74 45.5913 167.097 45.5452 167.436 45.6247C167.732 45.661 168.008 45.795 168.219 46.0057C168.42 46.2183 168.554 46.4855 168.604 46.7738C168.718 47.37 169.01 47.9176 169.442 48.3442C169.922 48.7682 170.521 49.0331 171.157 49.1024C171.795 49.24 172.461 49.1313 173.022 48.7981C173.232 48.6786 173.412 48.5141 173.551 48.3164C173.689 48.1187 173.782 47.8929 173.823 47.655C173.87 47.4419 173.86 47.2202 173.794 47.0121C173.728 46.804 173.609 46.617 173.448 46.4697C172.825 45.9764 172.135 45.5729 171.4 45.2709C170.194 44.7874 169.113 44.0379 168.237 43.0782C167.937 42.6879 167.722 42.2389 167.607 41.7604C167.492 41.2818 167.479 40.7845 167.568 40.3005C167.631 39.7613 167.821 39.245 168.124 38.7948C168.428 38.3447 168.834 37.974 169.311 37.7138C170.524 37.0856 171.915 36.8902 173.254 37.1601C174.515 37.2563 175.708 37.7706 176.644 38.6213C177.005 38.9892 177.274 39.4381 177.428 39.9307C177.581 40.4233 177.615 40.9454 177.526 41.4537C177.478 41.9413 177.284 42.4031 176.97 42.779C176.815 42.9153 176.63 43.0138 176.431 43.0669C176.231 43.1199 176.022 43.1262 175.819 43.0851C175.453 43.0467 175.116 42.8668 174.88 42.5838C174.737 42.4171 174.648 42.2102 174.626 41.9913C174.604 41.7724 174.649 41.552 174.757 41.36C174.791 41.2506 174.807 41.1364 174.804 41.0219C174.828 40.8515 174.804 40.6778 174.735 40.5202C174.666 40.3626 174.554 40.2274 174.413 40.1298C173.973 39.8116 173.455 39.6196 172.915 39.5746C172.254 39.4439 171.571 39.4834 170.929 39.6894C170.727 39.757 170.548 39.8795 170.412 40.043C170.276 40.2065 170.189 40.4047 170.159 40.6153C170.133 40.8352 170.163 41.0582 170.246 41.2635C170.329 41.4689 170.462 41.65 170.634 41.79C171.298 42.3014 172.024 42.7261 172.795 43.054C173.972 43.5355 175.036 44.2551 175.921 45.1676C176.185 45.5309 176.374 45.9433 176.478 46.3805C176.581 46.8177 176.596 47.2711 176.523 47.7144C176.409 48.4697 176.079 49.176 175.572 49.7475C175.017 50.3889 174.304 50.8742 173.503 51.1556C172.609 51.4775 171.647 51.5629 170.711 51.4033C169.715 51.2905 168.765 50.9194 167.957 50.3268Z" fill="#0D0E0D"/>
<path d="M180.518 52.3874C180.406 52.2437 180.324 52.0792 180.277 51.9034C180.23 51.7276 180.218 51.5442 180.243 51.3639L181.685 41.1024L179.271 40.763C178.904 40.7051 178.575 40.5056 178.355 40.2074C178.134 39.9093 178.039 39.5365 178.091 39.1692C178.11 38.9774 178.172 38.7922 178.272 38.6273C178.372 38.4624 178.507 38.3219 178.668 38.2162C178.978 37.9926 179.362 37.8967 179.74 37.9483L181.961 38.2604L182.396 35.1699C182.453 34.8003 182.65 34.4667 182.945 34.2377C183.091 34.1194 183.259 34.0325 183.44 33.9822C183.621 33.932 183.81 33.9196 183.996 33.9457C184.182 33.9718 184.36 34.0359 184.52 34.134C184.68 34.2321 184.818 34.3621 184.925 34.5159C185.035 34.6642 185.113 34.8332 185.156 35.0127C185.198 35.1922 185.204 35.3784 185.172 35.5601L184.738 38.6507L187.152 38.99C187.337 39.0146 187.514 39.0759 187.674 39.1703C187.834 39.2647 187.974 39.3903 188.085 39.5396C188.2 39.6904 188.284 39.8634 188.33 40.0477C188.376 40.2321 188.384 40.4239 188.353 40.6114C188.327 40.7915 188.265 40.9646 188.171 41.1206C188.077 41.2765 187.953 41.4121 187.806 41.5195C187.663 41.641 187.494 41.7303 187.313 41.7813C187.132 41.8323 186.942 41.8437 186.755 41.815L184.341 41.4756L182.889 51.8096C182.868 51.9914 182.809 52.1667 182.715 52.3235C182.621 52.4802 182.494 52.6147 182.342 52.7177C182.2 52.8319 182.036 52.9153 181.86 52.9626C181.683 53.0099 181.499 53.0201 181.319 52.9925C180.987 52.8956 180.702 52.6803 180.518 52.3874Z" fill="#0D0E0D"/>
</g>
<defs>
<clipPath id="clip0_1119_4180">
<rect width="195" height="36" fill="white" transform="translate(5.01023) rotate(8)"/>
</clipPath>
</defs>
</svg>
