<svg width="16" height="16" viewBox="0 0 16 16" fill="none" xmlns="http://www.w3.org/2000/svg">
<g clip-path="url(#clip0_1119_1278)">
<path d="M0.0260004 8.96735C-0.0393803 8.89123 0.0394014 8.82178 0.037371 8.7485C0.037371 8.7271 0.0576756 8.70529 0.0576756 8.68349C0.0576756 8.62494 0.0668126 8.61888 0.137269 8.64069C0.121635 8.58678 0.0986908 8.53288 0.0925994 8.47716C0.0897568 8.4499 0.11067 8.40266 0.133209 8.39256C0.24265 8.34391 0.289351 8.27143 0.243868 8.15292C0.318183 8.15978 0.378691 8.1721 0.406305 8.07963C0.423564 8.02149 0.462142 7.95224 0.553107 7.98071C0.56644 7.98462 0.580691 7.98413 0.593716 7.97929C0.702345 7.93629 0.702143 7.93589 0.811178 7.99746C0.839401 7.89753 1.01199 7.96577 1.00976 7.81859L1.09361 7.83413L1.02519 7.88642C1.08793 7.89874 1.14702 7.92821 1.15493 7.83252L1.28082 7.86967C1.30519 7.81172 1.28265 7.70634 1.36204 7.70311C1.48752 7.69765 1.60712 7.564 1.74255 7.68655L1.76285 7.62073C1.86438 7.68655 2.05625 7.68615 2.13788 7.61952L2.0461 7.58439V7.56138L2.19514 7.53735L2.20448 7.60317C2.2126 7.60317 2.22214 7.60317 2.22316 7.60095C2.26539 7.49798 2.32468 7.46629 2.43311 7.52685C2.48123 7.55391 2.54803 7.54866 2.60671 7.55815C2.61006 7.54278 2.61489 7.52777 2.62113 7.51333C2.6863 7.52403 2.71859 7.50283 2.7129 7.43257C2.72761 7.42613 2.743 7.42139 2.75879 7.41844L2.7525 7.4568L2.9663 7.53493C2.97138 7.51474 2.97646 7.49455 2.98478 7.46265L3.0457 7.55007L3.02174 7.5208C3.05991 7.50061 3.09747 7.46467 3.13666 7.46245C3.1724 7.46063 3.20915 7.49697 3.24712 7.51232C3.28039 7.52343 3.31429 7.5326 3.34864 7.53978L3.27047 7.45417C3.35169 7.44186 3.42438 7.41501 3.49057 7.42551C3.54803 7.43479 3.59879 7.48607 3.66722 7.52786C3.66092 7.48163 3.65747 7.45781 3.64976 7.40249L3.80509 7.51151L3.86965 7.45417C3.96224 7.59792 3.99148 7.39361 4.0727 7.42308L4.02864 7.50243C4.12854 7.56723 4.30031 7.5208 4.36143 7.40148C4.36897 7.42323 4.37863 7.44419 4.39026 7.46407C4.40285 7.48123 4.42113 7.50707 4.43696 7.50707C4.51432 7.50707 4.59169 7.49718 4.66925 7.49556C4.70519 7.49556 4.74214 7.51171 4.77727 7.50768C4.80833 7.50424 4.83818 7.48304 4.86762 7.46952L4.8528 7.43156L4.68265 7.45296L4.6792 7.42732L5.00001 7.36554C4.98537 7.38766 4.97318 7.41128 4.96367 7.436C4.96204 7.44287 4.98397 7.45619 4.99615 7.46629L5.08752 7.36373H5.29686C5.28224 7.40411 5.27351 7.42934 5.25889 7.47073H5.59514C5.5996 7.42106 5.59311 7.38997 5.6059 7.3712C5.6394 7.32436 5.77341 7.31628 5.83351 7.35384C5.86742 7.37402 5.89849 7.40007 5.93666 7.42773C5.93971 7.38856 5.94235 7.35606 5.94539 7.31628C5.79757 7.30175 5.7326 7.19394 5.68996 7.06796C5.64935 6.94682 5.55006 6.89998 5.43879 6.86344C5.41341 6.85496 5.3929 6.82549 5.37463 6.80287C5.29138 6.69607 5.20752 6.58968 5.12813 6.47985C5.0859 6.42191 5.07981 6.42413 4.92509 6.32682C4.86722 6.29048 4.84387 6.20225 4.79839 6.1435C4.7458 6.07627 4.68488 6.0159 4.62803 5.95211C4.58174 5.90002 4.53564 5.84793 4.49077 5.79483C4.48021 5.78232 4.47818 5.76253 4.46702 5.75123C4.33179 5.61535 4.19514 5.48089 4.06092 5.34482C4.04595 5.33166 4.03659 5.31332 4.03473 5.29354C4.04448 5.20511 4.00021 5.16816 3.91839 5.15444C3.89379 5.14667 3.87241 5.13115 3.85747 5.11022C3.77808 5.01412 3.70438 4.91318 3.62153 4.8201C3.5657 4.75711 3.46559 4.71492 3.44306 4.64507C3.4063 4.53221 3.2725 4.5205 3.24224 4.41249C3.23879 4.39957 3.19209 4.39835 3.18031 4.39553C3.11839 4.2962 3.06295 4.19667 2.99757 4.10481C2.94133 4.02647 2.86783 3.96045 2.81219 3.88273C2.76407 3.81469 2.73768 3.73111 2.68874 3.66367C2.59351 3.53204 2.49057 3.40606 2.38844 3.28008C2.32752 3.20579 2.30235 3.12947 2.33727 3.03418C2.35554 2.98391 2.34072 2.91769 2.36732 2.87509C2.46214 2.72407 2.69971 2.75173 2.81138 2.81795C3.05179 2.96049 3.21971 3.17994 3.42722 3.3564C3.46783 3.39092 3.48813 3.44805 3.52163 3.49247C3.53628 3.51241 3.55504 3.529 3.57666 3.54113C3.66559 3.58978 3.74194 3.6455 3.77341 3.75069C3.78275 3.78178 3.82803 3.80318 3.85808 3.82741C3.99209 3.93461 4.1393 4.0293 4.25747 4.15043C4.39676 4.29458 4.53361 4.43308 4.71108 4.53403C4.80843 4.58894 4.88641 4.67233 4.93443 4.77286C4.96996 4.84494 5.05625 4.894 5.12326 4.94911C5.20184 5.01432 5.2857 5.07287 5.36285 5.13929C5.40651 5.17664 5.45686 5.21823 5.47615 5.2685C5.4995 5.32907 5.52448 5.34421 5.58884 5.36238C5.66052 5.38257 5.72042 5.45586 5.77686 5.51441C5.81341 5.55236 5.8325 5.60627 5.86295 5.65048C5.87449 5.66554 5.89118 5.67588 5.90986 5.67955C6.00245 5.69389 6.05808 5.74759 6.08935 5.83279C6.09646 5.85298 6.11392 5.88326 6.1259 5.88306C6.28833 5.87963 6.33138 6.03488 6.43473 6.10857C6.4863 6.14532 6.52021 6.20952 6.57443 6.23839C6.67595 6.29249 6.71656 6.41847 6.85016 6.4421C6.91676 6.45381 6.96976 6.54183 7.02884 6.59553C7.0528 6.61713 7.07615 6.63954 7.10478 6.66619C7.10092 6.59896 7.09788 6.54607 7.09382 6.47702L7.22702 6.52851L7.14316 6.40737L7.27331 6.39162C7.30722 6.36073 7.31859 6.30461 7.24468 6.25858L7.10255 6.29896C7.15493 6.24808 7.20407 6.22183 7.21341 6.18549C7.22377 6.14511 7.19778 6.09444 7.18356 6.03064L7.27087 6.06375L7.27818 5.9515L7.19432 5.97754L7.17767 5.9624C7.19066 5.94192 7.20497 5.92229 7.22052 5.90365C7.23717 5.88528 7.27636 5.86327 7.27331 5.8548C7.26051 5.82825 7.24183 5.80492 7.21869 5.78656C7.20996 5.77848 7.1927 5.77929 7.1793 5.77586L7.20224 5.74315L7.3062 5.77727L7.20468 5.64301L7.27554 5.65412L7.28833 5.53581L7.24346 5.49543C7.26385 5.49084 7.28338 5.48307 7.30133 5.47241C7.30896 5.46651 7.31526 5.45907 7.31981 5.45058C7.32436 5.44209 7.32705 5.43275 7.32773 5.42315C7.31615 5.32867 7.32549 5.3317 7.34803 5.24589C7.36123 5.19663 7.3324 5.13606 7.32163 5.07529C7.45118 5.06863 7.41179 4.95739 7.43899 4.88834C7.4628 4.82125 7.48313 4.75299 7.49991 4.68383L7.41301 4.61175L7.43696 4.56714L7.56894 4.5522C7.57605 4.51646 7.58742 4.45912 7.59981 4.39593L7.51168 4.40946C7.51575 4.36141 7.5194 4.3176 7.52326 4.27318C7.66438 4.2639 7.58803 4.14518 7.64021 4.06746L7.5529 4.09814L7.5395 4.07795L7.59757 4.03515L7.5594 4.00911L7.71534 3.76381L7.6193 3.73111C7.78783 3.72 7.74438 3.56293 7.80346 3.47834L7.70986 3.41777C7.79108 3.3891 7.79108 3.33399 7.80894 3.27039C7.83432 3.18075 7.8193 3.07981 7.89016 2.99218C7.94377 2.92697 7.94133 2.81593 7.96224 2.72508C7.97321 2.67744 7.96712 2.6203 7.99209 2.58255C8.05301 2.48968 7.99209 2.38671 8.02234 2.30212C8.06174 2.1927 8.03981 2.05985 8.14417 1.97203C8.16163 1.9577 8.15453 1.91631 8.16265 1.88865C8.19026 1.79639 8.22356 1.70533 8.2461 1.61166C8.25179 1.58824 8.22681 1.55735 8.22295 1.54725C8.24874 1.49335 8.28102 1.45196 8.28732 1.40714C8.29768 1.33426 8.3062 1.26763 8.38295 1.2325C8.3927 1.22786 8.39818 1.2109 8.40326 1.19859C8.45666 1.06877 8.51351 0.940772 8.55615 0.809139C8.59676 0.685986 8.71108 0.620371 8.84204 0.659942C8.85808 0.664787 8.87473 0.677708 8.88915 0.675285C9.08651 0.643992 9.10925 0.793391 9.14925 0.923005C9.17727 1.01365 9.19818 1.10673 9.22641 1.19738C9.24125 1.2333 9.25919 1.26788 9.28001 1.30074L9.18316 1.27793L9.29869 1.47982H9.21402C9.22844 1.54846 9.24123 1.60863 9.25463 1.66879C9.23432 1.76227 9.19108 1.85756 9.30356 1.94821C9.31575 1.9579 9.28001 2.02735 9.26559 2.06934C9.22986 2.17029 9.22965 2.17029 9.35311 2.19815L9.21382 2.29909L9.22417 2.32332L9.35554 2.30939L9.23372 2.39358L9.32894 2.44022L9.32123 2.45839L9.24001 2.45233C9.25077 2.48261 9.26295 2.51673 9.27656 2.55529L9.34356 2.54843L9.34986 2.5662L9.25321 2.61505L9.34803 2.76748L9.25666 2.69419L9.24042 2.7055C9.27372 2.7701 9.30708 2.83478 9.34052 2.89952C9.24529 2.96614 9.22113 3.06264 9.27351 3.16702C9.28126 3.18136 9.28343 3.19803 9.2796 3.21386C9.22762 3.35841 9.22701 3.35821 9.29443 3.47369L9.17564 3.46824C9.14905 3.54415 9.18295 3.59927 9.23778 3.64995C9.27087 3.68023 9.31331 3.70809 9.2595 3.763C9.24306 3.77956 9.25707 3.82579 9.23473 3.86395C9.22864 3.82599 9.22235 3.78804 9.21625 3.75008L9.19453 3.74261L9.13138 3.92573L9.27676 3.97216L9.17889 4.03939C9.22336 4.06927 9.25727 4.09875 9.17788 4.14034C9.11047 4.17627 9.10275 4.31841 9.1529 4.38261C9.1793 4.41612 9.19087 4.44317 9.14519 4.48133C9.0995 4.51949 9.06945 4.57218 9.14275 4.62548C9.15595 4.63497 9.20732 4.70018 9.12245 4.71956C9.08996 4.72683 9.06336 4.97758 9.08955 5.00221C9.10377 5.01554 9.12671 5.01977 9.15839 5.03391L9.0597 5.08801L9.14336 5.16574C9.09057 5.21157 9.03656 5.2578 8.98377 5.30545C8.97849 5.3103 8.98113 5.32382 8.97991 5.33351L9.11148 5.29172L9.12793 5.32564L9.01321 5.4064H9.12224L8.96732 5.52107L8.98965 5.52793L8.87859 5.80109L9.02194 5.74739L9.03047 5.76758L8.98417 5.8015L9.00224 5.82653L9.17341 5.70217L9.16062 5.68945C9.213 5.6208 9.26214 5.54954 9.31899 5.48513C9.34519 5.45566 9.38762 5.44072 9.42174 5.41811C9.43558 5.4105 9.44763 5.40004 9.45707 5.38742C9.50153 5.31433 9.54397 5.24024 9.58742 5.16675C9.5925 5.15827 9.59981 5.14656 9.60773 5.14656C9.68265 5.1294 9.75798 5.11386 9.84366 5.09569C9.78701 4.98767 9.86133 4.93417 9.92488 4.87603C9.9553 4.84753 9.9831 4.81638 10.0079 4.78296C10.0603 4.71391 10.1178 4.64708 10.1592 4.57158C10.2173 4.46518 10.3176 4.42076 10.4148 4.36565C10.441 4.35091 10.4477 4.30347 10.4662 4.27258C10.4893 4.23381 10.5068 4.18556 10.5415 4.16073C10.6353 4.09249 10.6902 3.99215 10.7681 3.912C10.7884 3.89181 10.8242 3.88737 10.8384 3.88172C10.8459 3.86367 10.8552 3.84636 10.866 3.83003C10.9013 3.78844 10.9381 3.74806 10.9746 3.70769C11.0273 3.64968 11.0801 3.59207 11.133 3.53487C11.1501 3.5167 11.1708 3.50156 11.1862 3.48217C11.2936 3.34751 11.3793 3.18438 11.5137 3.08667C11.6114 3.0156 11.5992 2.8981 11.6977 2.83592C11.7728 2.78828 11.813 2.68814 11.8745 2.61606C11.9746 2.49856 12.0861 2.39015 12.1803 2.26841C12.2857 2.13253 12.3631 1.97546 12.5145 1.87674C12.5365 1.8624 12.5415 1.82404 12.5572 1.79861C12.589 1.74652 12.6317 1.71785 12.6981 1.72996C12.7364 1.7336 12.7749 1.73401 12.8132 1.73117C12.8855 1.73117 12.9367 1.7766 12.935 1.83858C12.935 1.94417 12.9271 2.05501 12.893 2.15353C12.8356 2.3309 12.7618 2.50263 12.6727 2.66653C12.6014 2.79171 12.5767 2.93646 12.4782 3.05134C12.4122 3.12866 12.4112 3.25323 12.3184 3.32167C12.3068 3.33035 12.3168 3.36689 12.3168 3.39375C12.2252 3.44705 12.1813 3.53204 12.1614 3.6449C12.1482 3.71919 12.0936 3.78622 12.0554 3.85628C11.9608 4.02829 11.8703 4.20313 11.7669 4.37009C11.7143 4.45529 11.6372 4.52534 11.5722 4.60348C11.5619 4.61787 11.5542 4.63392 11.5494 4.65092C11.5105 4.75752 11.4682 4.85463 11.3519 4.91176C11.3062 4.93417 11.294 5.02321 11.2652 5.08115C11.2333 5.14495 11.2026 5.20935 11.1665 5.27052C11.1397 5.31824 11.1074 5.36263 11.0701 5.40276C11.0075 5.46696 10.9901 5.56246 10.9111 5.61616C10.8849 5.63393 10.8705 5.6735 10.8587 5.7062C10.8181 5.82552 10.6686 5.87095 10.6514 6.01368C10.6487 6.03609 10.5921 6.12634 10.503 6.13482C10.4542 6.13946 10.41 6.21154 10.3677 6.25595C10.3352 6.29068 10.309 6.33106 10.2753 6.37527L10.3289 6.42514C10.2948 6.43745 10.2623 6.44048 10.2445 6.45804C10.2307 6.47157 10.2353 6.50327 10.2295 6.54183C10.2019 6.56178 10.1774 6.58566 10.1568 6.61269C10.1036 6.69648 10.0788 6.81802 10.0045 6.86405C9.88772 6.93693 9.95839 7.10632 9.82072 7.15093C9.86864 7.1475 9.91737 7.13761 9.96448 7.14246C10.0131 7.15084 10.061 7.16306 10.1076 7.179C10.1214 7.16163 10.1482 7.12227 10.1515 7.12449C10.1904 7.14743 10.2276 7.17299 10.263 7.201C10.3015 7.19172 10.3348 7.08088 10.4104 7.16971C10.413 7.17274 10.4376 7.16507 10.4437 7.15659C10.4971 7.0827 10.5365 7.11621 10.5734 7.17233C10.6355 7.09925 10.6355 7.09925 10.7072 7.15477C10.7708 7.137 10.8171 7.11439 10.8638 7.11298C10.9361 7.11298 11.0187 7.10773 11.0788 7.13923C11.1852 7.19515 11.2857 7.13337 11.3872 7.15053C11.3903 7.15053 11.3964 7.13499 11.4051 7.11904L11.3007 7.1047C11.4404 7.01971 11.5255 7.17112 11.641 7.12489L11.5164 7.09198C11.5147 7.08209 11.5133 7.07179 11.5117 7.0623C11.7023 7.10894 11.8922 7.15295 12.0248 6.98983L12.2818 7.0831C12.29 7.0403 12.2944 7.01647 12.2991 6.99245C12.3026 7.01028 12.3095 7.02728 12.3194 7.04252C12.335 7.05311 12.3524 7.06084 12.3708 7.06533C12.3708 7.05524 12.3685 7.04514 12.3675 7.03525C12.4096 7.02536 12.4617 6.99487 12.4922 7.00921C12.6603 7.08835 12.8299 6.98902 12.9974 7.02253C13.0329 7.0296 13.0739 7.01022 13.1125 7.00234L13.0609 6.95914C13.1241 6.95571 13.1872 6.94985 13.2504 6.94985C13.3316 6.94985 13.4128 6.987 13.4924 6.92845C13.5084 6.91674 13.5505 6.93915 13.5803 6.94662C13.6156 6.9555 13.6502 6.96681 13.6857 6.97408C13.8059 6.99952 13.909 6.98215 13.9541 6.94117C14.2491 6.98478 14.5257 6.9448 14.7866 6.92744C14.8881 6.93471 14.9767 6.95025 15.063 6.9446C15.1442 6.93915 15.2238 6.90422 15.3054 6.89453C15.4213 6.8804 15.5399 6.86263 15.6544 6.87434C15.7111 6.8804 15.7614 6.94904 15.8136 6.99063C15.8255 7.00236 15.8363 7.0152 15.8457 7.02899V7.1905C15.8051 7.3286 15.6615 7.36009 15.57 7.44489C15.5115 7.4992 15.4262 7.52827 15.3488 7.55815C15.2093 7.61205 15.0664 7.65748 14.9255 7.70795C14.8313 7.74167 14.7397 7.78427 14.6437 7.81112C14.573 7.83131 14.496 7.82666 14.4238 7.84201C14.3334 7.8622 14.2463 7.89652 14.1557 7.91247C14.0451 7.93165 13.9226 7.91529 13.8234 7.95688C13.7389 7.99221 13.6591 7.98434 13.5779 7.99888C13.5019 8.0124 13.4258 8.02654 13.3342 8.04309C13.296 7.9797 13.2467 8.06792 13.1933 8.07822C13.1324 8.09013 13.0701 8.10265 13.0093 8.1186C13.0002 8.12102 12.997 8.14182 12.989 8.15191C12.9818 8.16233 12.9713 8.17007 12.9592 8.17392C12.8623 8.18522 12.7651 8.1941 12.6865 8.20218C12.6435 8.21773 12.6146 8.22903 12.585 8.23832C12.5635 8.24807 12.5403 8.25342 12.5168 8.25407C12.4329 8.24438 12.3657 8.3645 12.2731 8.28334C12.2644 8.27567 12.2345 8.28657 12.2169 8.29465C12.1432 8.32836 12.0709 8.36551 11.9964 8.39781C11.9866 8.40205 11.9679 8.3861 11.9533 8.37944L11.8646 8.33906L11.8522 8.38408L11.8016 8.35097C11.7369 8.4495 11.6672 8.45333 11.589 8.40225L11.5101 8.47372C11.4575 8.40064 11.3911 8.42749 11.3273 8.44768C11.3151 8.45172 11.305 8.49169 11.3019 8.49068C11.1895 8.45434 11.0837 8.47554 10.9785 8.51874C10.9261 8.54015 10.8717 8.5567 10.8104 8.5781L10.7616 8.51471C10.7304 8.62252 10.6772 8.64816 10.5598 8.631C10.5616 8.60919 10.5637 8.58759 10.5675 8.54439C10.5021 8.65199 10.5021 8.65199 10.4136 8.59223C10.3907 8.70408 10.2971 8.56619 10.2591 8.63261C10.1982 8.73961 10.1468 8.60859 10.0873 8.61646C10.1076 8.70792 10.0479 8.67703 10.0033 8.67602C9.951 8.67815 9.89888 8.68294 9.84712 8.69035C9.84712 8.68551 9.84346 8.65603 9.83778 8.60334C9.76163 8.74466 9.62498 8.68995 9.52448 8.717C9.54722 8.78948 9.57097 8.85489 9.58823 8.92192C9.61727 9.03397 9.70559 9.11654 9.7791 9.08081C9.8526 9.04507 9.86478 9.06748 9.86031 9.13431C9.86153 9.14749 9.86743 9.1598 9.87696 9.16903C9.94965 9.24616 10.0234 9.32247 10.0991 9.40141C10.105 9.36891 10.1103 9.34084 10.1174 9.30047C10.1523 9.35356 10.1809 9.39435 10.2065 9.43694C10.2697 9.54152 10.3369 9.64408 10.3917 9.7527C10.4396 9.84779 10.5907 9.86778 10.5696 9.98609C10.6045 9.99618 10.624 9.99719 10.6382 10.0063C10.6788 10.0333 10.7194 10.0632 10.758 10.0933C10.816 10.1381 10.8749 10.1819 10.9291 10.2306C10.9495 10.249 10.9535 10.2855 10.974 10.3043C11.026 10.3523 11.0524 10.4195 11.1568 10.42C11.2177 10.42 11.2733 10.5389 11.3645 10.5591C11.3671 10.5591 11.3691 10.5635 11.3714 10.5659C11.3968 10.5928 11.4183 10.6251 11.4481 10.6457C11.5507 10.7167 11.6479 10.7916 11.7027 10.9081C11.7074 10.918 11.7296 10.9212 11.7434 10.9243C11.7637 10.9287 11.797 10.9221 11.8061 10.934C11.8995 11.0592 12.0096 11.1712 12.1332 11.2671C12.1369 11.2699 12.1358 11.2782 12.1393 11.282C12.1633 11.3101 12.1876 11.3375 12.2045 11.3565L12.1559 11.4423H12.3681L12.3046 11.5194C12.3858 11.5437 12.4733 11.5021 12.522 11.6018C12.5545 11.6682 12.6274 11.7155 12.6861 11.7752C12.7547 11.8172 12.8313 11.8637 12.9072 11.9107C12.9531 11.9371 12.9976 11.9658 13.0406 11.9967C13.106 12.0468 13.1679 12.1013 13.237 12.1582C13.2236 12.2089 13.2124 12.2652 13.321 12.239C13.347 12.2327 13.3834 12.2697 13.415 12.2866C13.4254 12.2921 13.4353 12.302 13.4461 12.3018C13.5882 12.2985 13.6617 12.3601 13.6727 12.4946C13.6741 12.5109 13.6774 12.5271 13.681 12.5527C13.7712 12.5041 13.7848 12.5763 13.7913 12.6266C13.8116 12.7797 13.8215 12.9337 13.8337 13.0875C13.8337 13.0984 13.8191 13.1097 13.8134 13.1219C13.786 13.1911 13.6916 13.2472 13.7864 13.3383C13.8449 13.3946 13.8536 13.4639 13.7899 13.5378C13.7509 13.5828 13.7389 13.65 13.7107 13.7051C13.6849 13.7552 13.6538 13.8024 13.6187 13.8618L13.5425 13.7475C13.5525 13.8862 13.4936 13.9304 13.3828 13.8999C13.3077 13.8828 13.2314 13.8721 13.1545 13.8678C13.1106 13.8656 13.0665 13.8656 13.0225 13.8678V13.8864L13.0632 13.9098C13.0424 13.9144 13.0206 13.911 13.0022 13.9003C13.0323 13.8196 12.9381 13.8279 12.9267 13.7687L12.8743 13.8828C12.8516 13.8349 12.8382 13.8071 12.8295 13.7891L12.4843 13.862L12.4465 13.7885L12.4276 13.8123C12.3801 13.7835 12.3277 13.7604 12.2865 13.7245C12.2197 13.6666 12.1647 13.5523 12.0971 13.547C11.9346 13.5339 11.8926 13.3678 11.7566 13.3294C11.7141 13.3177 11.6824 13.2517 11.655 13.205C11.6173 13.1386 11.5423 13.142 11.4908 13.1055C11.4392 13.069 11.3964 13.0173 11.3499 12.9723C11.2711 12.8959 11.1892 12.8227 11.1151 12.7421C11.0853 12.7098 11.0784 12.6313 11.0512 12.626C10.909 12.5994 10.8737 12.4566 10.7744 12.3827C10.69 12.3197 10.6729 12.1762 10.5464 12.1498L10.6 12.0793L10.491 12.0627L10.5101 12.0446L10.454 11.9737C10.3901 12.0258 10.374 11.958 10.3442 11.9291C10.3056 11.8917 10.2762 11.8403 10.2313 11.8158C10.1434 11.7684 10.0847 11.7014 10.0611 11.6087C10.039 11.5219 9.99432 11.5041 9.91636 11.5372C9.90336 11.5427 9.88529 11.5372 9.86965 11.5352L9.91026 11.4966C9.85361 11.4447 9.79351 11.3985 9.74478 11.3428C9.68691 11.2764 9.65199 11.1813 9.58235 11.1363C9.51688 11.0983 9.46866 11.0367 9.44773 10.9642C9.44422 10.9537 9.4385 10.944 9.43094 10.9357C9.42338 10.9275 9.41415 10.921 9.40387 10.9166C9.32874 10.8964 9.31575 10.8502 9.34681 10.7886C9.28346 10.7583 9.1996 10.745 9.17646 10.7004C9.15417 10.6512 9.11441 10.6118 9.06478 10.5899C9.01443 10.5655 8.94783 10.5082 8.946 10.463C8.9391 10.2932 8.76204 10.238 8.71778 10.0979C8.71534 10.0897 8.68712 10.0895 8.67087 10.0854C8.67575 10.1 8.68042 10.1145 8.68549 10.1288C8.69057 10.1432 8.69422 10.1514 8.69808 10.1617C8.54986 10.2487 8.54986 10.2487 8.67067 10.3293C8.6329 10.4048 8.59412 10.4791 8.559 10.555C8.5482 10.5839 8.53992 10.6136 8.53422 10.6438L8.61544 10.6622L8.60285 10.7686L8.46986 10.6677C8.49707 10.7506 8.51757 10.813 8.54113 10.8853C8.56874 10.8449 8.59331 10.8098 8.61808 10.7743L8.65321 10.7945C8.63778 10.8243 8.62092 10.8538 8.60752 10.8847C8.60202 10.8992 8.59993 10.9147 8.60143 10.9301C8.60378 10.9519 8.60723 10.9735 8.61179 10.9949L8.53646 10.9467C8.52955 11.0101 8.54316 11.0929 8.50986 11.1476C8.42742 11.2834 8.52671 11.2651 8.60184 11.2756C8.60549 11.2756 8.60793 11.2865 8.6124 11.2958L8.49057 11.3656L8.50255 11.3876L8.59981 11.3454L8.61179 11.3642L8.42255 11.5237L8.5793 11.5386C8.58174 11.5465 8.58417 11.5546 8.58641 11.5625L8.45016 11.618L8.46377 11.6584L8.60996 11.6158L8.62742 11.6289L8.54174 11.7373C8.61199 11.8253 8.48671 11.8144 8.45483 11.8649L8.49321 11.9236C8.48001 11.9313 8.45788 11.9366 8.45504 11.9471C8.42011 12.0704 8.54702 12.0991 8.61341 12.179L8.45828 12.2271C8.5395 12.2889 8.36306 12.4257 8.55981 12.4619C8.56448 12.5035 8.57036 12.5562 8.57767 12.6234L8.46316 12.5675L8.39493 12.7716L8.47615 12.715C8.50539 12.7863 8.55737 12.8537 8.48204 12.9119C8.41179 12.9664 8.42661 13.0342 8.41564 13.1061L8.50742 13.0902C8.50742 13.1481 8.50864 13.1966 8.50742 13.245C8.50742 13.2595 8.50092 13.2854 8.493 13.2854C8.40163 13.3056 8.39696 13.3809 8.39148 13.4532L8.3326 13.4346C8.33991 13.4733 8.34519 13.5004 8.35067 13.5299C8.38377 13.4945 8.41037 13.4663 8.43717 13.4382C8.44204 13.4921 8.50498 13.5628 8.39656 13.5725C8.38803 13.5725 8.37219 13.6028 8.37625 13.6114C8.39656 13.6569 8.42255 13.7003 8.44793 13.7435C8.46498 13.773 8.48427 13.8012 8.50255 13.8299L8.479 13.8438L8.39209 13.7952L8.373 13.8154C8.39493 13.8398 8.3527 13.9117 8.44651 13.8842C8.4527 13.8846 8.45869 13.8865 8.46391 13.8898C8.46914 13.8931 8.47342 13.8977 8.47636 13.9032C8.47436 13.9179 8.46946 13.9321 8.46194 13.945C8.44773 13.9797 8.43392 14.0146 8.4193 14.0493C8.41727 14.0542 8.41199 14.0574 8.40752 14.0625L8.38072 14.033L8.35473 14.0972C8.44509 14.0928 8.42539 14.1497 8.39879 14.185C8.37103 14.2189 8.35081 14.2583 8.33943 14.3005C8.32806 14.3428 8.3258 14.3869 8.3328 14.4301C8.36082 14.6064 8.25971 14.738 8.13788 14.8248C8.06214 14.8789 7.92854 14.8529 7.81686 14.863C7.81158 14.8672 7.79514 14.891 7.77625 14.8922C7.71108 14.8971 7.64509 14.8943 7.5795 14.8943L7.58153 14.9086L7.45971 14.8496C7.47108 14.8311 7.48001 14.8149 7.50295 14.779L7.29991 14.9132L7.35026 14.9157L7.26905 14.9627L7.24245 14.8819C7.20184 14.9052 7.16651 14.9274 7.12935 14.9447C7.12218 14.947 7.11463 14.9478 7.10714 14.9471C7.09965 14.9465 7.09236 14.9444 7.0857 14.9409C7.07981 14.9379 7.07818 14.9169 7.08184 14.9064C7.10052 14.8535 7.10214 14.8539 7.04894 14.8486C6.98174 14.842 6.89971 14.8624 6.88549 14.7586C6.88549 14.7511 6.86742 14.7412 6.85707 14.7404C6.77585 14.7331 6.76651 14.7253 6.74783 14.6665C6.72326 14.5902 6.68204 14.5171 6.67067 14.4394C6.66295 14.3881 6.61158 14.3134 6.70641 14.2734C6.63839 14.2397 6.67839 14.081 6.52468 14.1523L6.50945 14.1105L6.65057 14.0534L6.62235 14.0164L6.45889 13.9611L6.55575 13.8913L6.4591 13.8012L6.47534 13.781L6.59189 13.865C6.6325 13.8087 6.63879 13.7683 6.55026 13.7641C6.64042 13.6765 6.49077 13.646 6.50661 13.5759L6.52834 13.5906L6.59595 13.5028C6.55047 13.4766 6.57564 13.4453 6.58417 13.4102C6.59394 13.3745 6.59295 13.3368 6.58133 13.3017C6.57118 13.2761 6.53483 13.2614 6.49341 13.2274C6.50255 13.1917 6.43047 13.0805 6.59128 13.0795L6.53504 13.0033L6.56204 12.9955C6.55595 12.9458 6.47473 12.9058 6.5795 12.8685C6.58453 12.8493 6.58191 12.829 6.57219 12.8118C6.50905 12.753 6.50803 12.755 6.57686 12.6977C6.58478 12.691 6.58559 12.6741 6.58641 12.6617C6.59446 12.6004 6.59819 12.5385 6.59757 12.4766C6.59169 12.3858 6.53443 12.2949 6.61788 12.2067C6.63148 12.1921 6.60407 12.1393 6.59514 12.1025L6.65605 12.0157C6.52894 12.0181 6.57971 11.9099 6.52671 11.8683C6.58762 11.83 6.6392 11.7876 6.6995 11.8683C6.7062 11.8399 6.70823 11.7928 6.69646 11.789C6.59737 11.7575 6.60773 11.6614 6.56245 11.5964L6.66986 11.5574L6.60245 11.517L6.66783 11.4653L6.63798 11.3478L6.42092 11.4084L6.42844 11.4351L6.48793 11.4571C6.4524 11.5003 6.41889 11.5392 6.38641 11.5796C6.32549 11.6581 6.26458 11.7373 6.20245 11.816C6.18751 11.8382 6.17059 11.8589 6.15189 11.878C6.08671 11.9355 6.0193 11.9909 5.95453 12.0454C5.95636 12.0549 5.96935 12.0815 5.96204 12.089C5.92306 12.1294 5.87433 12.1617 5.83818 12.2045C5.81199 12.2356 5.80204 12.2798 5.78052 12.3157C5.7691 12.3313 5.75386 12.3436 5.73625 12.3516C5.69301 12.3741 5.64854 12.394 5.60448 12.415L5.65625 12.4756L5.48732 12.5255L5.44265 12.4756C5.42681 12.4897 5.40509 12.501 5.39636 12.5186C5.38397 12.544 5.38702 12.578 5.37219 12.6014C5.34653 12.6417 5.31635 12.6789 5.28224 12.7124C5.25971 12.7352 5.22844 12.7496 5.1862 12.7774L5.14498 12.7671C5.13625 12.8158 5.06235 12.8414 5.0993 12.9085C5.10823 12.9248 5.0924 12.9672 5.07453 12.9828C5.02031 13.0306 4.9527 13.0635 4.90295 13.1164C4.82438 13.2 4.75696 13.2937 4.68529 13.3833C4.68204 13.3875 4.68427 13.3956 4.68326 13.4017C4.66844 13.5103 4.64468 13.5285 4.54417 13.5083C4.51047 13.6159 4.51026 13.6145 4.38519 13.6242C4.36488 13.6258 4.34458 13.6444 4.32813 13.6589C4.23737 13.7316 4.16427 13.8101 4.19392 13.9427C4.199 13.966 4.15696 14.0013 4.13301 14.0283C4.07473 14.0956 4.01707 14.1636 3.95412 14.2266C3.92529 14.2557 3.88691 14.2884 3.84955 14.2932C3.78052 14.3025 3.72204 14.35 3.72285 14.4196C3.72407 14.5171 3.66194 14.5896 3.56042 14.6193C3.54783 14.6229 3.53747 14.6665 3.54275 14.6877C3.54722 14.7059 3.57544 14.7182 3.59636 14.736C3.58194 14.7451 3.56976 14.7584 3.56265 14.7562C3.41788 14.7111 3.40894 14.9189 3.28123 14.906C3.27778 14.906 3.27514 14.933 3.26661 14.9427C3.20184 15.0146 3.25097 15.1779 3.08387 15.1678C3.05605 15.2924 2.9659 15.2609 2.87432 15.2732C2.81341 15.2815 2.75879 15.3104 2.69564 15.2776C2.63717 15.2472 2.57666 15.2205 2.4993 15.1838C2.48224 15.227 2.46194 15.2789 2.43412 15.3497C2.38498 15.2346 2.306 15.2827 2.23108 15.2964C2.22214 15.2522 2.21443 15.2141 2.20326 15.1577L1.93747 15.2284C1.92285 15.165 1.90742 15.0974 1.88955 15.02L1.80549 15.0931C1.82844 15.0049 1.81564 14.9568 1.72285 14.9667L1.80529 14.8658C1.76996 14.8081 1.64509 14.8408 1.6792 14.7299L1.74133 14.7388C1.73016 14.6908 1.70823 14.649 1.71392 14.6112C1.7324 14.4864 1.68346 14.3976 1.58681 14.3251C1.5728 14.3096 1.565 14.2895 1.56488 14.2686C1.56163 14.2282 1.56488 14.186 1.56488 14.1446C1.59444 14.1023 1.6128 14.0533 1.61828 14.0021C1.6262 13.9173 1.63493 13.8218 1.71981 13.7933C1.80468 13.7649 1.79575 13.7142 1.7927 13.6546C1.83192 13.6465 1.87064 13.636 1.90864 13.6234C1.9324 13.6139 1.96834 13.5955 1.96955 13.5777C1.99108 13.4049 2.11554 13.3084 2.24123 13.2163C2.2928 13.1784 2.36082 13.1624 2.44427 13.1261C2.47067 13.0282 2.46925 12.8733 2.63433 12.8107C2.62945 12.7441 2.63859 12.6809 2.73219 12.6694C2.7458 12.6678 2.75757 12.6458 2.76834 12.6321C2.82133 12.5642 2.87351 12.4958 2.92651 12.428C2.92935 12.4245 2.93727 12.4249 2.94275 12.4233C2.94498 12.4453 2.94702 12.4667 2.94986 12.4958C2.99432 12.4322 3.03108 12.3797 3.06783 12.3264C3.10458 12.2731 3.13402 12.2131 3.17646 12.1649C3.21889 12.1166 3.27676 12.0781 3.32407 12.0316C3.36062 11.9957 3.37788 11.9236 3.4394 11.9545C3.50356 11.8859 3.57219 11.8116 3.64245 11.7385C3.6461 11.7347 3.65971 11.7425 3.66783 11.7407C3.73402 11.7256 3.80996 11.7226 3.80529 11.6232C3.80706 11.6069 3.81471 11.5918 3.82681 11.5806C3.9391 11.4619 4.03717 11.3347 4.19229 11.254C4.28021 11.2083 4.31879 11.0775 4.38072 10.9883C4.43351 10.9126 4.46295 10.8934 4.54945 10.9142L4.51554 10.8536C4.56996 10.8288 4.63311 10.8151 4.67432 10.7773C4.71554 10.7395 4.73686 10.6749 4.77037 10.6245C4.81404 10.5557 4.86149 10.4894 4.9125 10.4258C4.93625 10.3973 4.97707 10.3828 5.03432 10.3469L5.22174 9.99053C5.22844 10.0107 5.23757 10.0376 5.24651 10.0648C5.28854 9.94086 5.31676 9.82256 5.47433 9.79893C5.42783 9.67033 5.54641 9.69193 5.62092 9.65761L5.5194 9.60976L5.64671 9.55969C5.65747 9.46561 5.65808 9.46622 5.75859 9.38849C5.76894 9.38042 5.7663 9.3572 5.77585 9.3463C5.85422 9.25686 5.86498 9.11493 5.9929 9.0479L5.7261 9.09252C5.71818 9.12805 5.71169 9.15793 5.69971 9.21163C5.64488 9.10605 5.57788 9.06163 5.49828 9.08929L5.52549 9.18842L5.42214 9.12179C5.39108 9.17186 5.37869 9.21668 5.35595 9.22274C5.32488 9.23102 5.2861 9.20941 5.2463 9.19952H5.0991C5.04732 9.21264 4.99757 9.2399 4.95696 9.23182C4.89463 9.2183 4.83778 9.17933 4.76833 9.14602C4.76062 9.19346 4.75615 9.22032 4.7527 9.24232H4.62031L4.61808 9.22213L4.7058 9.18761L4.69646 9.16217L4.50377 9.20255C4.50377 9.23748 4.50803 9.2722 4.50377 9.27361C4.47703 9.2788 4.44977 9.2809 4.42255 9.27987L4.47209 9.16944L4.26336 9.2405L4.27189 9.26837L4.20001 9.21708C4.14397 9.32227 3.97666 9.36023 3.90113 9.2722C3.95676 9.26574 4.00427 9.2615 4.05138 9.25403C4.07009 9.24912 4.08825 9.24236 4.10559 9.23384C4.08773 9.21809 4.06945 9.18842 4.05199 9.18882C3.91778 9.19205 3.78356 9.20134 3.62702 9.21002C3.65605 9.25343 3.67554 9.2823 3.69483 9.31096L3.68082 9.32611L3.58945 9.24818C3.56204 9.25746 3.54194 9.27139 3.52488 9.26837C3.4329 9.25302 3.36245 9.28432 3.30153 9.35235C3.2861 9.36951 3.24427 9.37254 3.21727 9.3679C3.12691 9.35134 3.03757 9.3152 2.93016 9.40242C2.94641 9.35094 2.9529 9.33055 2.9592 9.31036C2.88346 9.29421 2.84021 9.30874 2.88082 9.38869C2.7862 9.44764 2.75351 9.3792 2.7326 9.33358C2.69808 9.36548 2.66052 9.42261 2.63818 9.41716C2.51636 9.38789 2.44326 9.486 2.34519 9.51447C2.33197 9.51921 2.31902 9.52467 2.30641 9.53082C2.27473 9.45734 2.24549 9.52578 2.21504 9.53244C2.20651 9.53426 2.19818 9.53708 2.18661 9.54031V9.48722C2.14417 9.5074 2.10235 9.54778 2.06823 9.54112C1.98458 9.52699 1.90844 9.61521 1.82194 9.55283C1.81057 9.54455 1.76955 9.57908 1.74072 9.59159C1.71189 9.60411 1.68204 9.614 1.67818 9.61542C1.56184 9.74301 1.39575 9.73514 1.28874 9.81912C1.25991 9.81367 1.22519 9.79611 1.20143 9.8056C1.17768 9.81509 1.15859 9.85163 1.12163 9.89483C1.1257 9.763 1.06072 9.73635 0.967929 9.73332L1.00427 9.81347C0.835137 9.73655 0.73666 9.89867 0.601432 9.8807C0.554528 9.85567 0.502346 9.84941 0.454833 9.83104C0.416075 9.81731 0.38124 9.79445 0.35331 9.76441C0.292396 9.69274 0.242853 9.61279 0.184173 9.53951C0.125493 9.46622 0.110467 9.3998 0.219706 9.33761L0.0146299 9.16782L0.161229 9.19972L0.166102 9.17812L0.0806197 9.11392C0.0960614 9.093 0.10888 9.07029 0.118792 9.04629C0.121635 9.0368 0.107016 9.01822 0.0956451 9.00974C0.0732459 8.99433 0.0499945 8.98017 0.0260004 8.96735ZM8.50153 10.1892C8.54702 10.1749 8.60204 10.1745 8.62011 10.1488C8.68245 10.0596 8.58133 10.0325 8.52691 9.97963C8.5194 10.0424 8.51169 10.1054 8.50153 10.1892Z" fill="#EA1646"/>
<path d="M0.184365 9.05176C0.142132 9.1258 0.101523 9.20555 0 9.18358V9.13964C0.0353299 9.11899 0.0698477 9.0957 0.106193 9.07812C0.131701 9.06753 0.157812 9.05872 0.184365 9.05176Z" fill="#EA1646"/>
</g>
<defs>
<clipPath id="clip0_1119_1278">
<rect width="16" height="16" fill="white"/>
</clipPath>
</defs>
</svg>
